G04*
G04 #@! TF.GenerationSoftware,Altium Limited,Altium Designer,18.1.7 (191)*
G04*
G04 Layer_Physical_Order=2*
G04 Layer_Color=16711680*
%FSLAX25Y25*%
%MOIN*%
G70*
G01*
G75*
%ADD18C,0.01000*%
%ADD19R,0.19685X0.19685*%
%ADD20C,0.02400*%
G36*
X27559Y368549D02*
X49213D01*
Y363734D01*
X47884D01*
X47846Y363791D01*
X47118Y364277D01*
X46260Y364448D01*
X45401Y364277D01*
X44674Y363791D01*
X44188Y363063D01*
X44017Y362205D01*
X44188Y361346D01*
X44674Y360619D01*
X45401Y360132D01*
X46260Y359962D01*
X47118Y360132D01*
X47846Y360619D01*
X47884Y360675D01*
X49213D01*
Y353346D01*
X343469D01*
Y347986D01*
X343546Y347596D01*
X343767Y347265D01*
X344098Y347044D01*
X344488Y346967D01*
X345817D01*
X345915Y346986D01*
X346016D01*
X346109Y347024D01*
X346207Y347044D01*
X346291Y347100D01*
X346383Y347138D01*
X346454Y347209D01*
X346538Y347265D01*
X346547Y347279D01*
X346980Y347569D01*
X347441Y347660D01*
X347902Y347569D01*
X348292Y347308D01*
X348425Y347108D01*
Y346457D01*
Y345496D01*
Y342520D01*
Y318898D01*
X345076D01*
X344973Y319144D01*
X344918Y319228D01*
X344879Y319321D01*
X344440Y319978D01*
X344369Y320049D01*
X344313Y320132D01*
X343754Y320691D01*
X343671Y320747D01*
X343600Y320818D01*
X342943Y321257D01*
X342850Y321296D01*
X342766Y321351D01*
X342036Y321654D01*
X341938Y321673D01*
X341845Y321712D01*
X341070Y321866D01*
X340969Y321866D01*
X340871Y321886D01*
X340476Y321886D01*
X340476Y321886D01*
X324828Y321886D01*
X324542Y321900D01*
X323958Y322016D01*
X323430Y322235D01*
X322955Y322552D01*
X322552Y322955D01*
X322235Y323430D01*
X322016Y323958D01*
X321900Y324542D01*
X321886Y324828D01*
X321886Y340475D01*
X321886Y340871D01*
X321866Y340969D01*
Y341070D01*
X321712Y341845D01*
X321673Y341938D01*
X321654Y342036D01*
X321351Y342766D01*
X321296Y342850D01*
D01*
X321257Y342943D01*
X320818Y343600D01*
X320747Y343671D01*
X320691Y343754D01*
X320132Y344313D01*
X320049Y344369D01*
X319978Y344440D01*
X319321Y344879D01*
X319228Y344918D01*
X319144Y344973D01*
X319123Y344982D01*
X318898Y345076D01*
X318414Y345276D01*
X318316Y345296D01*
X318223Y345334D01*
X317447Y345488D01*
X317347D01*
X317249Y345508D01*
X316854Y345508D01*
X316853Y345508D01*
X76772Y345508D01*
X76384Y345508D01*
X76285Y345488D01*
X76185D01*
X75424Y345337D01*
X75332Y345299D01*
X75233Y345279D01*
X74517Y344982D01*
X74450Y344938D01*
X74428Y344926D01*
X73934Y344878D01*
X73713Y345209D01*
X73382Y345430D01*
X72992Y345508D01*
X47274Y345508D01*
X47175Y345488D01*
X47075D01*
X46982Y345450D01*
X46883Y345430D01*
X46800Y345374D01*
X46736Y345348D01*
X46260Y345253D01*
X45784Y345348D01*
X45720Y345374D01*
X45636Y345430D01*
X45538Y345450D01*
X45445Y345488D01*
X45344D01*
X45246Y345508D01*
X42358D01*
Y356299D01*
X42281Y356689D01*
X42059Y357020D01*
X41729Y357241D01*
X41339Y357319D01*
X30512D01*
X30122Y357241D01*
X29791Y357020D01*
X29570Y356689D01*
X29492Y356299D01*
Y339567D01*
X29570Y339177D01*
X29791Y338846D01*
X48674Y319963D01*
X48816Y319430D01*
X48813Y319360D01*
X48798Y319324D01*
X48774Y319268D01*
X48719Y319184D01*
X48422Y318468D01*
X48402Y318369D01*
X48364Y318276D01*
X48213Y317516D01*
Y317415D01*
X48193Y317317D01*
X48193Y316929D01*
X48193Y316929D01*
X48193Y289370D01*
Y288982D01*
X48213Y288884D01*
Y288783D01*
X48364Y288023D01*
X48402Y287930D01*
X48422Y287831D01*
X48719Y287115D01*
X48774Y287032D01*
X48813Y286939D01*
X49213Y286340D01*
Y284994D01*
X47884D01*
X47846Y285051D01*
X47118Y285537D01*
X46260Y285708D01*
X45401Y285537D01*
X44674Y285051D01*
X44188Y284323D01*
X44017Y283465D01*
X44188Y282606D01*
X44674Y281878D01*
X45401Y281392D01*
X46260Y281222D01*
X47118Y281392D01*
X47846Y281878D01*
X47884Y281935D01*
X49213D01*
Y274606D01*
X343469D01*
Y269246D01*
X343546Y268856D01*
X343767Y268525D01*
X344098Y268304D01*
X344488Y268226D01*
X345817D01*
X345915Y268246D01*
X346016D01*
X346109Y268284D01*
X346207Y268304D01*
X346291Y268360D01*
X346383Y268398D01*
X346454Y268469D01*
X346538Y268525D01*
X346547Y268539D01*
X346980Y268829D01*
X347441Y268920D01*
X347902Y268829D01*
X348292Y268568D01*
X348425Y268368D01*
Y267065D01*
X348292Y266865D01*
X347902Y266605D01*
X347441Y266513D01*
X346980Y266605D01*
X346547Y266894D01*
X346538Y266908D01*
X346454Y266964D01*
X346383Y267035D01*
X346291Y267073D01*
X346207Y267129D01*
X346109Y267149D01*
X346016Y267187D01*
X345915D01*
X345817Y267207D01*
X344488D01*
X344098Y267129D01*
X343767Y266908D01*
X343546Y266577D01*
X343504Y266365D01*
X343017Y266089D01*
X342943Y266139D01*
X342850Y266178D01*
X342766Y266233D01*
X342036Y266536D01*
X341938Y266555D01*
X341845Y266594D01*
X341070Y266748D01*
X340969D01*
X340871Y266768D01*
X340476Y266768D01*
X340476Y266768D01*
X53150Y266768D01*
X52762Y266768D01*
X52663Y266748D01*
X52563D01*
X51802Y266597D01*
X51710Y266558D01*
X51611Y266539D01*
X50894Y266242D01*
X50811Y266186D01*
X50718Y266148D01*
X50073Y265717D01*
X50002Y265646D01*
X49919Y265590D01*
X49371Y265042D01*
X49315Y264958D01*
X49244Y264887D01*
X48813Y264242D01*
X48774Y264149D01*
X48719Y264066D01*
X48422Y263350D01*
X48402Y263251D01*
X48364Y263158D01*
X48213Y262398D01*
Y262297D01*
X48193Y262199D01*
X48193Y261811D01*
X48193Y210630D01*
Y210242D01*
X48213Y210144D01*
Y210043D01*
X48364Y209283D01*
X48402Y209190D01*
X48422Y209091D01*
X48719Y208375D01*
X48774Y208291D01*
X48813Y208199D01*
X49213Y207600D01*
Y206254D01*
X47884D01*
X47846Y206311D01*
X47118Y206797D01*
X46260Y206967D01*
X45401Y206797D01*
X44674Y206311D01*
X44188Y205583D01*
X44017Y204724D01*
X44188Y203866D01*
X44674Y203138D01*
X45401Y202652D01*
X46260Y202481D01*
X47118Y202652D01*
X47846Y203138D01*
X47884Y203195D01*
X49213D01*
Y195866D01*
X343469D01*
Y190506D01*
X343546Y190116D01*
X343767Y189785D01*
X344098Y189564D01*
X344488Y189486D01*
X345817D01*
X345915Y189506D01*
X346016D01*
X346109Y189544D01*
X346207Y189564D01*
X346291Y189620D01*
X346383Y189658D01*
X346454Y189729D01*
X346538Y189785D01*
X346547Y189799D01*
X346980Y190088D01*
X347441Y190180D01*
X347902Y190088D01*
X348292Y189827D01*
X348425Y189628D01*
Y188325D01*
X348292Y188125D01*
X347902Y187864D01*
X347441Y187773D01*
X346980Y187864D01*
X346547Y188154D01*
X346538Y188168D01*
X346454Y188224D01*
X346383Y188295D01*
X346291Y188333D01*
X346207Y188389D01*
X346109Y188409D01*
X346016Y188447D01*
X345915D01*
X345817Y188467D01*
X344488D01*
X344098Y188389D01*
X343767Y188168D01*
X343546Y187837D01*
X343510Y187656D01*
X343009Y187390D01*
X342982Y187408D01*
X342890Y187446D01*
X342806Y187502D01*
X342090Y187799D01*
X341991Y187818D01*
X341898Y187856D01*
X341138Y188008D01*
X341037Y188008D01*
X340939Y188027D01*
X340552Y188027D01*
X340551Y188027D01*
X53150Y188027D01*
X52762Y188027D01*
X52663Y188008D01*
X52563D01*
X51802Y187856D01*
X51710Y187818D01*
X51611Y187799D01*
X50894Y187502D01*
X50811Y187446D01*
X50718Y187408D01*
X50073Y186977D01*
X50002Y186906D01*
X49919Y186850D01*
X49371Y186302D01*
X49315Y186218D01*
X49244Y186147D01*
X48813Y185502D01*
X48774Y185409D01*
D01*
X48719Y185326D01*
X48422Y184609D01*
X48402Y184511D01*
X48364Y184418D01*
X48213Y183658D01*
Y183557D01*
X48193Y183459D01*
X48193Y183071D01*
Y131890D01*
X48193Y131502D01*
X48213Y131404D01*
Y131303D01*
X48364Y130543D01*
X48402Y130450D01*
X48422Y130351D01*
X48719Y129635D01*
X48774Y129551D01*
X48813Y129458D01*
X49213Y128860D01*
Y127514D01*
X47884D01*
X47846Y127570D01*
X47118Y128057D01*
X46260Y128227D01*
X45401Y128057D01*
X44674Y127570D01*
X44188Y126843D01*
X44017Y125984D01*
X44188Y125126D01*
X44674Y124398D01*
X45401Y123912D01*
X46260Y123741D01*
X47118Y123912D01*
X47846Y124398D01*
X47884Y124455D01*
X49213D01*
Y117126D01*
X343469D01*
Y111766D01*
X343546Y111375D01*
X343767Y111045D01*
X344098Y110824D01*
X344488Y110746D01*
X345817D01*
X345915Y110766D01*
X346016D01*
X346109Y110804D01*
X346207Y110824D01*
X346291Y110879D01*
X346383Y110918D01*
X346454Y110989D01*
X346538Y111045D01*
X346547Y111059D01*
X346980Y111348D01*
X347441Y111440D01*
X347902Y111348D01*
X348292Y111087D01*
X348425Y110888D01*
Y109585D01*
X348292Y109385D01*
X347902Y109124D01*
X347441Y109033D01*
X346980Y109124D01*
X346547Y109414D01*
X346538Y109428D01*
X346454Y109484D01*
X346383Y109555D01*
X346291Y109593D01*
X346207Y109649D01*
X346109Y109668D01*
X346016Y109707D01*
X345915D01*
X345817Y109726D01*
X344488D01*
X344098Y109649D01*
X343767Y109428D01*
X343546Y109097D01*
X343510Y108916D01*
X343009Y108650D01*
X342982Y108667D01*
X342890Y108706D01*
X342806Y108762D01*
X342090Y109058D01*
X341991Y109078D01*
X341898Y109116D01*
X341138Y109268D01*
X341037Y109268D01*
X340939Y109287D01*
X340552Y109287D01*
X340551Y109287D01*
X53150Y109287D01*
X52762D01*
X52663Y109268D01*
X52563D01*
X51802Y109116D01*
X51710Y109078D01*
X51611Y109058D01*
X50894Y108762D01*
X50811Y108706D01*
X50718Y108667D01*
X50073Y108237D01*
X50002Y108166D01*
X49919Y108110D01*
X49371Y107561D01*
X49315Y107478D01*
X49244Y107407D01*
X49213Y107360D01*
D01*
X48813Y106762D01*
X48774Y106669D01*
X48719Y106586D01*
D01*
X48600Y106299D01*
X48422Y105869D01*
X48402Y105771D01*
X48364Y105678D01*
X48213Y104917D01*
Y104817D01*
X48193Y104718D01*
Y104331D01*
Y76772D01*
Y76384D01*
X48205Y76323D01*
X48194Y76162D01*
X47915Y75823D01*
X45276D01*
X44885Y75745D01*
X44555Y75524D01*
X44334Y75193D01*
X44256Y74803D01*
X44256Y48205D01*
X44188Y48103D01*
X44017Y47244D01*
X44188Y46386D01*
X44674Y45658D01*
X45401Y45172D01*
X46260Y45001D01*
X47118Y45172D01*
X47846Y45658D01*
X47884Y45715D01*
X49213D01*
Y38386D01*
X343469D01*
Y33026D01*
X343546Y32635D01*
X343767Y32304D01*
X344098Y32083D01*
X344488Y32006D01*
X345817D01*
X345915Y32026D01*
X346016D01*
X346109Y32064D01*
X346207Y32083D01*
X346291Y32139D01*
X346383Y32178D01*
X346454Y32249D01*
X346538Y32304D01*
X346547Y32319D01*
X346980Y32608D01*
X347441Y32700D01*
X347902Y32608D01*
X348292Y32347D01*
X348425Y32148D01*
X348425Y30844D01*
X348292Y30645D01*
X347902Y30384D01*
X347441Y30292D01*
X346980Y30384D01*
X346547Y30674D01*
X346538Y30688D01*
X346454Y30743D01*
X346383Y30814D01*
X346291Y30853D01*
X346207Y30909D01*
X346109Y30928D01*
X346016Y30967D01*
X345915D01*
X345817Y30986D01*
X344488D01*
X344098Y30909D01*
X343767Y30688D01*
X343546Y30357D01*
X343469Y29967D01*
Y25151D01*
X27559D01*
X27493Y25138D01*
X26628Y25311D01*
X25838Y25838D01*
X25311Y26628D01*
X25138Y27493D01*
X25152Y27559D01*
X25151Y365644D01*
X25152Y366142D01*
X25219Y366614D01*
X25311Y367073D01*
X25838Y367863D01*
X26628Y368390D01*
X27493Y368562D01*
X27559Y368549D01*
D02*
G37*
G36*
X367073Y368390D02*
X367863Y367863D01*
X368390Y367073D01*
X368562Y366208D01*
X368549Y366142D01*
X368549Y28058D01*
X368549Y27559D01*
X368482Y27087D01*
X368390Y26628D01*
X367863Y25838D01*
X367073Y25311D01*
X366208Y25138D01*
X366142Y25151D01*
X344488D01*
Y29967D01*
X345817D01*
X345855Y29910D01*
X346583Y29424D01*
X347441Y29253D01*
X348299Y29424D01*
X349027Y29910D01*
X349513Y30638D01*
X349684Y31496D01*
X349513Y32355D01*
X349027Y33082D01*
X348299Y33568D01*
X347441Y33739D01*
X346583Y33568D01*
X345855Y33082D01*
X345817Y33026D01*
X344488D01*
Y40354D01*
X50232D01*
Y45715D01*
X50155Y46105D01*
X49933Y46436D01*
X49603Y46657D01*
X49213Y46734D01*
X47884D01*
X47785Y46715D01*
X47685D01*
X47592Y46676D01*
X47494Y46657D01*
X47410Y46601D01*
X47317Y46562D01*
X47246Y46491D01*
X47163Y46436D01*
X47153Y46422D01*
X46720Y46132D01*
X46260Y46041D01*
X45799Y46132D01*
X45409Y46393D01*
X45276Y46593D01*
Y48205D01*
X45276Y48205D01*
Y49079D01*
X45276Y51181D01*
X45276D01*
X45276Y74803D01*
X48600D01*
X48719Y74517D01*
X48774Y74433D01*
X48813Y74340D01*
X49244Y73695D01*
X49315Y73624D01*
X49371Y73541D01*
X49919Y72993D01*
X50002Y72937D01*
X50073Y72866D01*
X50718Y72435D01*
X50811Y72396D01*
X50894Y72341D01*
X51611Y72044D01*
X51710Y72024D01*
X51802Y71986D01*
X52563Y71835D01*
X52663D01*
X52762Y71815D01*
X53150D01*
X68873Y71815D01*
X69158Y71801D01*
X69743Y71685D01*
X70271Y71466D01*
X70745Y71149D01*
X71149Y70745D01*
X71466Y70271D01*
X71685Y69743D01*
X71801Y69158D01*
X71815Y68872D01*
X71815Y53150D01*
D01*
X71815Y52762D01*
X71835Y52663D01*
Y52563D01*
X71986Y51802D01*
X72024Y51710D01*
X72044Y51611D01*
X72222Y51181D01*
X72341Y50894D01*
X72396Y50811D01*
X72435Y50718D01*
X72866Y50073D01*
X72937Y50002D01*
X72993Y49919D01*
X73541Y49371D01*
X73624Y49315D01*
X73695Y49244D01*
X74340Y48813D01*
X74433Y48774D01*
X74517Y48719D01*
X75233Y48422D01*
X75332Y48402D01*
X75424Y48364D01*
X76185Y48213D01*
X76285D01*
X76384Y48193D01*
X76772Y48193D01*
X76772Y48193D01*
X316929Y48193D01*
X317317D01*
X317415Y48213D01*
X317516D01*
X318276Y48364D01*
X318369Y48402D01*
X318468Y48422D01*
X319184Y48719D01*
X319250Y48763D01*
X319273Y48775D01*
X319767Y48822D01*
X319988Y48492D01*
X320319Y48271D01*
X320709Y48193D01*
X346427Y48193D01*
X346526Y48213D01*
X346626D01*
X346719Y48251D01*
X346817Y48271D01*
X346817Y48271D01*
X346901Y48326D01*
X346965Y48353D01*
X347441Y48448D01*
X347917Y48353D01*
X347981Y48326D01*
X348065Y48271D01*
X348163Y48251D01*
X348256Y48213D01*
X348356D01*
X348455Y48193D01*
X351343D01*
Y39370D01*
X351420Y38980D01*
X351641Y38649D01*
X351972Y38428D01*
X352362Y38350D01*
X352366D01*
X352745Y37784D01*
X353472Y37298D01*
X354331Y37127D01*
X355189Y37298D01*
X355917Y37784D01*
X356295Y38350D01*
X363189D01*
X363579Y38428D01*
X363910Y38649D01*
X364131Y38980D01*
X364209Y39370D01*
Y54134D01*
X364131Y54524D01*
X363910Y54855D01*
X344777Y73988D01*
X344691Y74045D01*
X344888Y74340D01*
X344926Y74433D01*
X344982Y74516D01*
X345279Y75233D01*
X345298Y75331D01*
X345337Y75424D01*
X345488Y76185D01*
Y76285D01*
X345508Y76384D01*
X345508Y76771D01*
X345508Y76772D01*
X345508Y104331D01*
X345508Y104718D01*
X345488Y104817D01*
Y104917D01*
X345337Y105678D01*
X345299Y105771D01*
X345279Y105869D01*
X344982Y106586D01*
X344926Y106669D01*
X344888Y106762D01*
X344488Y107360D01*
Y108707D01*
X345817D01*
X345855Y108650D01*
X346583Y108164D01*
X347441Y107993D01*
X348299Y108164D01*
X349027Y108650D01*
X349513Y109378D01*
X349684Y110236D01*
X349513Y111095D01*
X349027Y111822D01*
X348299Y112309D01*
X347441Y112479D01*
X346583Y112309D01*
X345855Y111822D01*
X345817Y111766D01*
X344488D01*
Y119102D01*
X50232D01*
Y124455D01*
X50155Y124845D01*
X49933Y125176D01*
X49603Y125397D01*
X49213Y125475D01*
X47884D01*
X47785Y125455D01*
X47685D01*
X47592Y125416D01*
X47494Y125397D01*
X47410Y125341D01*
X47317Y125303D01*
X47246Y125232D01*
X47163Y125176D01*
X47153Y125162D01*
X46720Y124872D01*
X46260Y124781D01*
X45799Y124872D01*
X45409Y125133D01*
X45276Y125333D01*
Y126636D01*
X45409Y126835D01*
X45799Y127096D01*
X46260Y127188D01*
X46720Y127096D01*
X47153Y126807D01*
X47163Y126793D01*
X47246Y126737D01*
X47317Y126666D01*
X47410Y126627D01*
X47494Y126572D01*
X47592Y126552D01*
X47685Y126514D01*
X47785D01*
X47884Y126494D01*
X49213D01*
X49603Y126572D01*
X49933Y126793D01*
X50155Y127123D01*
X50191Y127304D01*
X50692Y127571D01*
X50718Y127553D01*
X50811Y127515D01*
X50894Y127459D01*
X51611Y127162D01*
X51710Y127143D01*
X51802Y127104D01*
X52563Y126953D01*
X52663D01*
X52762Y126933D01*
X53150Y126933D01*
X340476Y126933D01*
X340871D01*
X340969Y126953D01*
X341070D01*
X341845Y127107D01*
X341938Y127145D01*
X342036Y127165D01*
X342766Y127468D01*
X342850Y127523D01*
X342943Y127562D01*
X343600Y128001D01*
X343671Y128072D01*
X343754Y128128D01*
X344313Y128686D01*
X344369Y128770D01*
X344440Y128841D01*
X344879Y129498D01*
X344918Y129591D01*
X344973Y129674D01*
X345079Y129929D01*
X345276Y130405D01*
X345296Y130503D01*
X345334Y130596D01*
X345488Y131371D01*
Y131472D01*
X345508Y131570D01*
Y131965D01*
X345508Y131965D01*
X345508Y183071D01*
X345508Y183459D01*
X345488Y183557D01*
Y183658D01*
X345337Y184418D01*
X345299Y184511D01*
X345279Y184609D01*
X344982Y185326D01*
X344926Y185409D01*
X344888Y185502D01*
X344488Y186100D01*
Y187447D01*
X345817D01*
X345855Y187390D01*
X346583Y186904D01*
X347441Y186733D01*
X348299Y186904D01*
X349027Y187390D01*
X349513Y188118D01*
X349684Y188976D01*
X349513Y189835D01*
X349027Y190562D01*
X348299Y191049D01*
X347441Y191219D01*
X346583Y191049D01*
X345855Y190562D01*
X345817Y190506D01*
X344488D01*
Y197843D01*
X50232D01*
Y203195D01*
X50155Y203585D01*
X49933Y203916D01*
X49603Y204137D01*
X49213Y204215D01*
X47884D01*
X47785Y204195D01*
X47685D01*
X47592Y204157D01*
X47494Y204137D01*
X47410Y204081D01*
X47317Y204043D01*
X47246Y203972D01*
X47163Y203916D01*
X47153Y203902D01*
X46720Y203612D01*
X46260Y203521D01*
X45799Y203612D01*
X45409Y203873D01*
X45276Y204073D01*
Y205376D01*
X45409Y205575D01*
X45799Y205836D01*
X46260Y205928D01*
X46720Y205836D01*
X47153Y205547D01*
X47163Y205533D01*
X47246Y205477D01*
X47317Y205406D01*
X47410Y205368D01*
X47494Y205312D01*
X47592Y205292D01*
X47685Y205254D01*
X47785D01*
X47884Y205234D01*
X49213D01*
X49603Y205312D01*
X49933Y205533D01*
X50155Y205864D01*
X50191Y206045D01*
X50692Y206311D01*
X50718Y206293D01*
X50811Y206255D01*
X50894Y206199D01*
X51611Y205902D01*
X51710Y205883D01*
X51802Y205844D01*
X52563Y205693D01*
X52663D01*
X52762Y205673D01*
X53149Y205673D01*
X53150Y205673D01*
X340397Y205673D01*
X340800Y205673D01*
X340898Y205693D01*
X340999D01*
X341789Y205850D01*
X341882Y205889D01*
X341981Y205908D01*
X342725Y206217D01*
X342809Y206272D01*
X342901Y206311D01*
X343571Y206758D01*
X343642Y206830D01*
X343726Y206885D01*
X344296Y207455D01*
X344352Y207539D01*
X344423Y207610D01*
X344488Y207708D01*
X344870Y208280D01*
X344909Y208373D01*
X344965Y208456D01*
X345053Y208669D01*
X345273Y209201D01*
X345292Y209299D01*
X345331Y209392D01*
X345488Y210182D01*
Y210283D01*
X345508Y210381D01*
X345508Y210784D01*
X345508Y210784D01*
X345508Y261735D01*
X345508Y262130D01*
X345488Y262229D01*
Y262330D01*
X345334Y263105D01*
X345296Y263197D01*
X345276Y263296D01*
X344973Y264026D01*
X344918Y264110D01*
X344879Y264202D01*
X344488Y264788D01*
Y266187D01*
X345817D01*
X345855Y266130D01*
X346583Y265644D01*
X347441Y265473D01*
X348299Y265644D01*
X349027Y266130D01*
X349513Y266858D01*
X349684Y267717D01*
X349513Y268575D01*
X349027Y269303D01*
X348299Y269789D01*
X347441Y269960D01*
X346583Y269789D01*
X345855Y269303D01*
X345817Y269246D01*
X344488D01*
Y276583D01*
X50232D01*
Y281935D01*
X50155Y282325D01*
X49933Y282656D01*
X49603Y282877D01*
X49213Y282955D01*
X47884D01*
X47785Y282935D01*
X47685D01*
X47592Y282897D01*
X47494Y282877D01*
X47410Y282821D01*
X47317Y282783D01*
X47246Y282712D01*
X47163Y282656D01*
X47153Y282642D01*
X46720Y282353D01*
X46260Y282261D01*
X45799Y282353D01*
X45409Y282613D01*
X45276Y282813D01*
Y284116D01*
X45409Y284316D01*
X45799Y284577D01*
X46260Y284668D01*
X46720Y284577D01*
X47153Y284287D01*
X47163Y284273D01*
X47246Y284217D01*
X47317Y284146D01*
X47410Y284108D01*
X47494Y284052D01*
X47592Y284032D01*
X47685Y283994D01*
X47785D01*
X47884Y283974D01*
X49213D01*
X49603Y284052D01*
X49933Y284273D01*
X50155Y284604D01*
X50191Y284785D01*
X50692Y285051D01*
X50718Y285033D01*
X50811Y284995D01*
X50894Y284939D01*
X51611Y284642D01*
X51710Y284623D01*
X51802Y284584D01*
X52563Y284433D01*
X52663D01*
X52762Y284413D01*
X53150D01*
X340598Y284414D01*
X340982D01*
X341080Y284433D01*
X341180D01*
X341932Y284582D01*
X342025Y284621D01*
X342123Y284641D01*
X342831Y284934D01*
X342915Y284990D01*
X343007Y285028D01*
X343644Y285454D01*
X343715Y285525D01*
X343799Y285580D01*
X344341Y286122D01*
X344396Y286206D01*
X344467Y286277D01*
X344893Y286914D01*
X344932Y287007D01*
X344987Y287090D01*
X345120Y287409D01*
X345281Y287798D01*
X345300Y287896D01*
X345339Y287989D01*
X345488Y288741D01*
Y288841D01*
X345508Y288940D01*
Y289322D01*
X345508Y289323D01*
X345508Y316853D01*
X345508Y317249D01*
X345488Y317347D01*
Y317447D01*
X345479Y317492D01*
X345797Y317878D01*
X348425D01*
X348815Y317956D01*
X349146Y318177D01*
X349367Y318508D01*
X349445Y318898D01*
Y345496D01*
X349513Y345598D01*
X349684Y346457D01*
X349513Y347315D01*
X349027Y348043D01*
X348299Y348529D01*
X347441Y348700D01*
X346583Y348529D01*
X345855Y348043D01*
X345817Y347986D01*
X344488D01*
Y355315D01*
X50232D01*
Y360675D01*
X50155Y361066D01*
X49933Y361396D01*
X49603Y361617D01*
X49213Y361695D01*
X47884D01*
X47785Y361675D01*
X47685D01*
X47592Y361637D01*
X47494Y361617D01*
X47410Y361561D01*
X47317Y361523D01*
X47246Y361452D01*
X47163Y361396D01*
X47153Y361382D01*
X46720Y361093D01*
X46260Y361001D01*
X45799Y361093D01*
X45409Y361354D01*
X45276Y361553D01*
X45276Y362856D01*
X45409Y363056D01*
X45799Y363317D01*
X46260Y363408D01*
X46720Y363317D01*
X47153Y363027D01*
X47163Y363013D01*
X47246Y362957D01*
X47317Y362886D01*
X47410Y362848D01*
X47494Y362792D01*
X47592Y362772D01*
X47685Y362734D01*
X47785D01*
X47884Y362715D01*
X49213D01*
X49603Y362792D01*
X49933Y363013D01*
X50155Y363344D01*
X50232Y363734D01*
Y368549D01*
X366142D01*
X366208Y368562D01*
X367073Y368390D01*
D02*
G37*
G36*
X41339Y344488D02*
X45246D01*
X45401Y344384D01*
X46260Y344214D01*
X47118Y344384D01*
X47274Y344488D01*
X72992Y344488D01*
X73199Y343988D01*
X72993Y343782D01*
X72937Y343698D01*
X72866Y343627D01*
X72435Y342983D01*
X72396Y342890D01*
X72341Y342806D01*
X72044Y342090D01*
X72024Y341991D01*
X71986Y341898D01*
X71835Y341138D01*
Y341037D01*
X71815Y340939D01*
X71815Y340551D01*
X71815Y340551D01*
X71815Y324828D01*
X71801Y324542D01*
X71685Y323958D01*
X71466Y323430D01*
X71149Y322955D01*
X70745Y322552D01*
X70271Y322235D01*
X69743Y322016D01*
X69158Y321900D01*
X68873Y321886D01*
X53150Y321886D01*
X52762Y321886D01*
X52663Y321866D01*
X52563D01*
X51802Y321715D01*
X51710Y321676D01*
X51611Y321657D01*
X50894Y321360D01*
X50811Y321304D01*
X50718Y321266D01*
X50073Y320835D01*
X50006Y320768D01*
X50000Y320762D01*
X49919Y320708D01*
X49895Y320684D01*
X49395Y320684D01*
X30512Y339567D01*
Y356299D01*
X41339D01*
Y344488D01*
D02*
G37*
G36*
X363189Y54134D02*
Y39370D01*
X352362D01*
Y49213D01*
X348455D01*
X348299Y49316D01*
X347441Y49487D01*
X346583Y49316D01*
X346427Y49213D01*
X320709Y49213D01*
X320502Y49713D01*
X320708Y49919D01*
X320764Y50002D01*
X320835Y50073D01*
X321266Y50718D01*
X321304Y50811D01*
X321360Y50894D01*
X321657Y51611D01*
X321676Y51709D01*
X321715Y51802D01*
X321866Y52563D01*
Y52663D01*
X321886Y52762D01*
Y53149D01*
X321886Y53150D01*
X321886Y68873D01*
X321900Y69158D01*
X322016Y69743D01*
X322235Y70271D01*
X322552Y70745D01*
X322955Y71149D01*
X323430Y71466D01*
X323958Y71685D01*
X324542Y71801D01*
X324831Y71815D01*
X340939Y71815D01*
X341037Y71835D01*
X341138D01*
X341898Y71986D01*
X341991Y72024D01*
X342090Y72044D01*
X342806Y72341D01*
X342890Y72396D01*
X342983Y72435D01*
X343627Y72866D01*
X343698Y72937D01*
X343782Y72993D01*
X344056Y73267D01*
X363189Y54134D01*
D02*
G37*
%LPC*%
G36*
X37402Y277834D02*
X36543Y277663D01*
X35816Y277177D01*
X35329Y276449D01*
X35159Y275590D01*
X35329Y274732D01*
X35816Y274004D01*
X35872Y273967D01*
Y202411D01*
X35816Y202374D01*
X35329Y201646D01*
X35159Y200787D01*
X35329Y199929D01*
X35816Y199201D01*
X36543Y198715D01*
X37402Y198544D01*
X38260Y198715D01*
X38988Y199201D01*
X39474Y199929D01*
X39645Y200787D01*
X39474Y201646D01*
X38988Y202374D01*
X38931Y202411D01*
Y273967D01*
X38988Y274004D01*
X39474Y274732D01*
X39645Y275590D01*
X39474Y276449D01*
X38988Y277177D01*
X38260Y277663D01*
X37402Y277834D01*
D02*
G37*
G36*
Y120353D02*
X36543Y120183D01*
X35816Y119696D01*
X35329Y118969D01*
X35159Y118110D01*
X35329Y117252D01*
X35816Y116524D01*
X35872Y116486D01*
Y44931D01*
X35816Y44893D01*
X35329Y44166D01*
X35159Y43307D01*
X35329Y42449D01*
X35816Y41721D01*
X36543Y41235D01*
X37402Y41064D01*
X38260Y41235D01*
X38988Y41721D01*
X39474Y42449D01*
X39645Y43307D01*
X39474Y44166D01*
X38988Y44893D01*
X38931Y44931D01*
Y116486D01*
X38988Y116524D01*
X39474Y117252D01*
X39645Y118110D01*
X39474Y118969D01*
X38988Y119696D01*
X38260Y120183D01*
X37402Y120353D01*
D02*
G37*
G36*
X356299Y352637D02*
X355441Y352466D01*
X354713Y351980D01*
X354227Y351252D01*
X354056Y350394D01*
X354227Y349535D01*
X354713Y348808D01*
X354770Y348770D01*
Y277215D01*
X354713Y277177D01*
X354227Y276449D01*
X354056Y275590D01*
X354227Y274732D01*
X354713Y274004D01*
X355441Y273518D01*
X356299Y273347D01*
X357158Y273518D01*
X357885Y274004D01*
X358372Y274732D01*
X358542Y275590D01*
X358372Y276449D01*
X357885Y277177D01*
X357829Y277215D01*
Y348770D01*
X357885Y348808D01*
X358372Y349535D01*
X358542Y350394D01*
X358372Y351252D01*
X357885Y351980D01*
X357158Y352466D01*
X356299Y352637D01*
D02*
G37*
G36*
Y195157D02*
X355441Y194986D01*
X354713Y194500D01*
X354227Y193772D01*
X354056Y192913D01*
X354227Y192055D01*
X354713Y191327D01*
X354770Y191289D01*
Y119734D01*
X354713Y119696D01*
X354227Y118969D01*
X354056Y118110D01*
X354227Y117252D01*
X354713Y116524D01*
X355441Y116038D01*
X356299Y115867D01*
X357158Y116038D01*
X357885Y116524D01*
X358372Y117252D01*
X358542Y118110D01*
X358372Y118969D01*
X357885Y119696D01*
X357829Y119734D01*
Y191289D01*
X357885Y191327D01*
X358372Y192055D01*
X358542Y192913D01*
X358372Y193772D01*
X357885Y194500D01*
X357158Y194986D01*
X356299Y195157D01*
D02*
G37*
%LPD*%
D18*
X208405Y362205D02*
X282480D01*
X287146D02*
X342776D01*
X287146D02*
X290839D01*
X282480D02*
X287146D01*
X279528D02*
X282480D01*
X32480Y31496D02*
X50925D01*
X27559Y267717D02*
Y346457D01*
X287146Y283465D02*
X342776D01*
X366142Y204724D02*
Y362205D01*
X361221Y283465D02*
X366142D01*
X27559Y188976D02*
X27559Y267717D01*
X32480D01*
X361221Y204724D02*
X366142D01*
X27559Y110236D02*
X27559Y188976D01*
X32480D01*
X27559Y35925D02*
X27559Y110236D01*
X32480D01*
X27559Y31496D02*
Y35925D01*
X366142Y47244D02*
Y125984D01*
X27559Y31496D02*
X32480D01*
X203740Y357776D02*
Y362205D01*
X208405D01*
X212598Y358012D01*
X208405Y346457D02*
X268701D01*
X189961D02*
X208405D01*
X212598Y350650D01*
X287146Y346457D02*
X342776D01*
X347441D01*
X338583Y350650D02*
X342776Y346457D01*
X342776Y362205D02*
X347441D01*
X338583Y358012D02*
X342776Y362205D01*
X129665D02*
X203740D01*
X287146D02*
X291339Y358012D01*
X268701Y346457D02*
X287146D01*
X291339Y350650D01*
X129665Y346457D02*
X189961D01*
X111221D02*
X129665D01*
X133858Y350650D01*
X125000Y362205D02*
X129665D01*
X133858Y358012D01*
X50925Y362205D02*
X125000D01*
X46260D02*
X50925D01*
X55118Y358012D01*
X50925Y346457D02*
X111221D01*
X46260D02*
X50925D01*
X55118Y350650D01*
X50925Y267717D02*
X111221D01*
X46260D02*
X50925D01*
X55118Y271909D01*
X50925Y283465D02*
X125000D01*
X46260D02*
X50925D01*
X55118Y279272D01*
X129665Y267717D02*
X189961D01*
X111221D02*
X129665D01*
X133858Y271909D01*
X125000Y279035D02*
Y283465D01*
X129665D02*
X203740D01*
X125000D02*
X129665D01*
X133858Y279272D01*
X208405Y267717D02*
X268701D01*
X189961D02*
X208405D01*
X212598Y271909D01*
X208405Y283465D02*
X282480D01*
X203740D02*
X208405D01*
X212598Y279272D01*
X287146Y267717D02*
X342776D01*
X268701D02*
X287146D01*
X291339Y271909D01*
X282480Y283465D02*
X287146D01*
X291339Y279272D01*
X347441Y362205D02*
X361221D01*
X342776Y47244D02*
X347441D01*
X342776Y267717D02*
X347441D01*
X338583Y271909D02*
X342776Y267717D01*
X342776Y283465D02*
X347441D01*
X338583Y279272D02*
X342776Y283465D01*
X342776Y188976D02*
X347441D01*
X287146D02*
X342776D01*
X338583Y193169D02*
X342776Y188976D01*
X342776Y204724D02*
X347441D01*
X287146D02*
X342776D01*
X338583Y200532D02*
X342776Y204724D01*
X268701Y188976D02*
X287146D01*
X291339Y193169D01*
X347441Y204724D02*
X361221D01*
X282480D02*
X287146D01*
X291339Y200532D01*
X208405Y188976D02*
X268701D01*
X189961D02*
X208405D01*
X212598Y193169D01*
X208405Y204724D02*
X282480D01*
X203740D02*
X208405D01*
X212598Y200532D01*
X129665Y188976D02*
X189961D01*
X111221D02*
X129665D01*
X133858Y193169D01*
X125000Y200295D02*
Y204724D01*
X129665D02*
X203740D01*
X125000D02*
X129665D01*
X133858Y200532D01*
X50925Y204724D02*
X125000D01*
X46260D02*
X50925D01*
X55118Y200532D01*
X50925Y188976D02*
X111221D01*
X32480D02*
X46260D01*
X50925D01*
X55118Y193169D01*
X50925Y125984D02*
X125000D01*
X46260D02*
X50925D01*
X111221Y110236D02*
X129665D01*
X50925D02*
X111221D01*
X46260D02*
X50925D01*
X50925Y125984D02*
X55118Y121791D01*
X50925Y110236D02*
X55118Y114429D01*
X129665Y110236D02*
X189961D01*
X129665D02*
X133858Y114429D01*
X129665Y125984D02*
X203740D01*
X125000D02*
X129665D01*
X133858Y121791D01*
X203740Y121555D02*
Y125984D01*
X208405D02*
X282480D01*
X203740D02*
X208405D01*
X212598Y121791D01*
X208405Y110236D02*
X268701D01*
X189961D02*
X208405D01*
X212598Y114429D01*
X282480Y121555D02*
Y125984D01*
X287146D02*
X342520D01*
X282480D02*
X287146D01*
X291339Y121791D01*
X287146Y110236D02*
X342776D01*
X268701D02*
X287146D01*
X291339Y114429D01*
X342776Y110236D02*
X347441D01*
X338583Y114429D02*
X342776Y110236D01*
X342520Y125984D02*
X347441D01*
X342520Y125728D02*
Y125984D01*
X338583Y121791D02*
X342520Y125728D01*
X361221Y125984D02*
X366142D01*
X366142Y204724D01*
X342776Y31496D02*
X347441D01*
X287146D02*
X342776D01*
X338583Y35689D02*
X342776Y31496D01*
X287146Y47244D02*
X342776D01*
X338583Y43051D02*
X342776Y47244D01*
X282480D02*
X287146D01*
X291339Y43051D01*
X268701Y31496D02*
X287146D01*
X291339Y35689D01*
X203740Y42815D02*
Y47244D01*
X208405D02*
X282480D01*
X203740D02*
X208405D01*
X129665D02*
X203740D01*
X208405D02*
X212598Y43051D01*
X208405Y31496D02*
X268701D01*
X189961D02*
X208405D01*
X212598Y35689D01*
X129665Y31496D02*
X189961D01*
X111221D02*
X129665D01*
X133858Y35689D01*
X125000Y42815D02*
Y47244D01*
X129665D01*
X133858Y43051D01*
X50925Y47244D02*
X125000D01*
X46260D02*
X50925D01*
X55118Y43051D01*
X50925Y31496D02*
X111221D01*
X50925D02*
X55118Y35689D01*
X361221Y362205D02*
X366142D01*
X32480Y267717D02*
Y272146D01*
X361221Y279035D02*
Y283465D01*
X32480Y110236D02*
Y114665D01*
X361221Y121555D02*
Y125984D01*
X37402Y200787D02*
Y275590D01*
Y43307D02*
Y118110D01*
X356299D02*
Y192913D01*
X111221Y267717D02*
Y272146D01*
X268701Y31496D02*
Y35925D01*
X189961Y31496D02*
Y35925D01*
X111221Y31496D02*
Y35925D01*
X32480Y31496D02*
Y35925D01*
X282480Y42815D02*
Y47244D01*
X268701Y110236D02*
Y114665D01*
X189961Y110236D02*
Y114665D01*
X111221Y110236D02*
Y114665D01*
X125000Y121555D02*
Y125984D01*
X268701Y188976D02*
Y193405D01*
X189961Y188976D02*
Y193405D01*
X111221Y188976D02*
Y193405D01*
X32480Y188976D02*
Y193405D01*
X282480Y200295D02*
Y204724D01*
X203740Y200295D02*
Y204724D01*
X361221Y200295D02*
Y204724D01*
X356299Y275590D02*
Y350394D01*
X361221Y357776D02*
Y362205D01*
X189961Y267717D02*
Y272146D01*
X268701Y267717D02*
Y272146D01*
X203740Y279035D02*
Y283465D01*
X282480Y279035D02*
Y283465D01*
X125000Y357776D02*
Y362205D01*
X282480Y357776D02*
Y362205D01*
X111221Y346457D02*
Y350886D01*
X189961Y346457D02*
Y350886D01*
X268701Y346457D02*
Y350886D01*
D19*
X334646Y59055D02*
D03*
X59055D02*
D03*
X334646Y334646D02*
D03*
X59055D02*
D03*
D20*
X338583Y358012D02*
D03*
Y350650D02*
D03*
X291339D02*
D03*
Y358012D02*
D03*
X212598Y350650D02*
D03*
Y358012D02*
D03*
X133858Y350650D02*
D03*
Y358012D02*
D03*
X55118D02*
D03*
Y350650D02*
D03*
Y271909D02*
D03*
Y279272D02*
D03*
X133858D02*
D03*
Y271909D02*
D03*
X212598D02*
D03*
Y279272D02*
D03*
X291339D02*
D03*
Y271909D02*
D03*
X338583D02*
D03*
Y279272D02*
D03*
Y193169D02*
D03*
Y200532D02*
D03*
X291339Y193169D02*
D03*
Y200532D02*
D03*
X212598Y193169D02*
D03*
Y200532D02*
D03*
X133858Y193169D02*
D03*
Y200532D02*
D03*
X55118Y193169D02*
D03*
Y200532D02*
D03*
Y114429D02*
D03*
Y121791D02*
D03*
X133858Y114429D02*
D03*
Y121791D02*
D03*
X212598D02*
D03*
Y114429D02*
D03*
X291339Y121791D02*
D03*
Y114429D02*
D03*
X338583D02*
D03*
Y121791D02*
D03*
Y35689D02*
D03*
Y43051D02*
D03*
X291339Y35689D02*
D03*
Y43051D02*
D03*
X212598Y35689D02*
D03*
Y43051D02*
D03*
X133858Y35689D02*
D03*
Y43051D02*
D03*
X55118Y35689D02*
D03*
Y43051D02*
D03*
X39370Y354331D02*
D03*
X46260Y204724D02*
D03*
X354331Y39370D02*
D03*
X46260Y47244D02*
D03*
Y31496D02*
D03*
X347441Y110236D02*
D03*
Y125984D02*
D03*
X46260Y267717D02*
D03*
X347441Y283465D02*
D03*
Y47244D02*
D03*
Y31496D02*
D03*
Y204724D02*
D03*
Y188976D02*
D03*
Y346457D02*
D03*
Y267717D02*
D03*
Y362205D02*
D03*
X46260Y346457D02*
D03*
Y362205D02*
D03*
Y283465D02*
D03*
Y188976D02*
D03*
Y110236D02*
D03*
Y125984D02*
D03*
X32480Y267717D02*
D03*
X361221Y283465D02*
D03*
X32480Y110236D02*
D03*
X361221Y125984D02*
D03*
X37402Y200787D02*
D03*
Y43307D02*
D03*
X356299Y192913D02*
D03*
X37402Y118110D02*
D03*
X356299D02*
D03*
X37402Y275590D02*
D03*
X356299D02*
D03*
Y350394D02*
D03*
M02*
