M48
;Layer_Color=9474304
;FILE_FORMAT=2:5
INCH,TZ
T3F00S00C0.20000
%
G90
G05
T03
G00X334488Y295433
M15
G01X334488Y310871
G01X324313Y310878
G01X323927Y310897
G01X322467Y311077
G01X321710Y311228
G01X319834Y311797
G01X319121Y312092
G01X317392Y313016
G01X316750Y313445
G01X315235Y314689
G01X314689Y315234
G01X313445Y316750
G01X313016Y317391
G01X312092Y319120
G01X311797Y319834
G01X311228Y321709
G01X311077Y322466
G01X310897Y323927
G01X310866Y324803
G01X310866Y334488
G01X82830Y334488
G01X82823Y324313
G01X82804Y323927
G01X82624Y322466
G01X82473Y321709
G01X81904Y319833
G01X81609Y319120
G01X80684Y317392
G01X80256Y316750
G01X79012Y315234
G01X78466Y314689
G01X76951Y313445
G01X76309Y313016
G01X74580Y312092
G01X73867Y311797
G01X71991Y311228
G01X71234Y311077
G01X69774Y310897
G01X68898Y310866
G01X59213Y310866
G01X59213Y295433
G01X334488Y295433
M16
G00X310878Y69388
M15
G01X310897Y69774
G01X311077Y71234
G01X311228Y71991
G01X311797Y73867
G01X312092Y74580
G01X313016Y76309
G01X313445Y76951
G01X314689Y78466
G01X315234Y79012
G01X316750Y80256
G01X317392Y80684
G01X319120Y81608
G01X319833Y81904
G01X321709Y82473
G01X322466Y82623
G01X323923Y82803
G01X324803Y82835
G01X334488Y82835
G01X334488Y98268
G01X59213Y98268
G01X59213Y82830
G01X69388Y82823
G01X69774Y82804
G01X71234Y82624
G01X71991Y82473
G01X73867Y81904
G01X74580Y81609
G01X76309Y80684
G01X76951Y80256
G01X78466Y79012
G01X79012Y78466
G01X80256Y76951
G01X80684Y76309
G01X81609Y74580
G01X81904Y73867
G01X82473Y71991
G01X82624Y71234
G01X82804Y69775
G01X82835Y68898
G01X82835Y59213
G01X310871Y59213
G01X310878Y69388
M16
G00X334488Y255748
M15
G01X59213Y255748
G01X59213Y216693
G01X334488Y216693
G01X334488Y255748
M16
G00X334488Y137953
M15
G01X334488Y177008
G01X59213Y177008
G01X59213Y137953
G01X334488Y137953
M16
G00X366021Y13622
M15
G01X366440Y13593
G01X367447Y13674
G01X368475Y13809
G01X370996Y14485
G01X371954Y14881
G01X374215Y16187
G01X375037Y16818
G01X376883Y18664
G01X377514Y19486
G01X378820Y21747
G01X379216Y22704
G01X379892Y25226
G01X380027Y26254
G01X380067Y27559
G01X380079Y27559
G01X380079Y27926
G01X380089Y28250
G01X380079Y28309
G01X380079Y366020
G01X380108Y366440
G01X380027Y367447
G01X379892Y368475
G01X379216Y370996
G01X378820Y371954
G01X377514Y374215
G01X376883Y375037
G01X375037Y376883
G01X374215Y377514
G01X371954Y378820
G01X370996Y379216
G01X368475Y379892
G01X367447Y380027
G01X366141Y380113
G01X27681Y380079
G01X27260Y380108
G01X26254Y380027
G01X25226Y379892
G01X22704Y379216
G01X21747Y378820
G01X19486Y377514
G01X18664Y376883
G01X16818Y375037
G01X16187Y374215
G01X14881Y371954
G01X14485Y370996
G01X13809Y368475
G01X13674Y367447
G01X13633Y366142
G01X13622Y366142
G01X13622Y365775
G01X13612Y365450
G01X13622Y365392
G01X13622Y27683
G01X13592Y27263
G01X13674Y26254
G01X13809Y25226
G01X14485Y22704
G01X14881Y21747
G01X16187Y19486
G01X16818Y18664
G01X18664Y16818
G01X19486Y16187
G01X21747Y14881
G01X22704Y14485
G01X25226Y13809
G01X26254Y13674
G01X27560Y13588
G01X366021Y13622
M16
M17
M30
