G04*
G04 #@! TF.GenerationSoftware,Altium Limited,Altium Designer,18.1.7 (191)*
G04*
G04 Layer_Physical_Order=1*
G04 Layer_Color=255*
%FSLAX25Y25*%
%MOIN*%
G70*
G01*
G75*
%ADD12R,0.04016X0.03701*%
%ADD13R,0.03937X0.03347*%
%ADD18C,0.01000*%
%ADD19R,0.19685X0.19685*%
%ADD20C,0.02400*%
G36*
X27559Y368549D02*
X343469D01*
Y363734D01*
X343546Y363344D01*
X343767Y363013D01*
X344098Y362792D01*
X344488Y362715D01*
X345817D01*
X345915Y362734D01*
X346016D01*
X346109Y362772D01*
X346207Y362792D01*
X346291Y362848D01*
X346383Y362886D01*
X346454Y362957D01*
X346538Y363013D01*
X346547Y363027D01*
X346980Y363317D01*
X347441Y363408D01*
X347902Y363317D01*
X348292Y363056D01*
X348425Y362856D01*
X348425Y361553D01*
X348400Y361515D01*
X348343Y361377D01*
X348272Y361245D01*
X348267Y361194D01*
X348248Y361148D01*
Y360998D01*
X348233Y360849D01*
X348248Y360801D01*
Y360750D01*
X348305Y360612D01*
X348348Y360468D01*
X348425Y360325D01*
X348425Y356122D01*
X346041D01*
X345650Y356044D01*
X345320Y355823D01*
X345054Y355513D01*
X344671Y355684D01*
X344581Y355744D01*
X343996Y355860D01*
X286559D01*
X285449Y356970D01*
Y360449D01*
X279512D01*
Y355315D01*
X266435D01*
X266337Y355412D01*
X265841Y355744D01*
X265256Y355860D01*
X207819D01*
X206709Y356970D01*
Y360449D01*
X200772D01*
Y355315D01*
X187694D01*
X187597Y355412D01*
X187101Y355744D01*
X186516Y355860D01*
X129078D01*
X127969Y356970D01*
Y360449D01*
X122031D01*
Y355315D01*
X108954D01*
X108857Y355412D01*
X108361Y355744D01*
X107776Y355860D01*
X50338D01*
X49228Y356970D01*
Y360449D01*
X43291D01*
Y355102D01*
X46770D01*
X47851Y354021D01*
X47660Y353559D01*
X43291D01*
Y348213D01*
X44186D01*
X44453Y347713D01*
X44188Y347315D01*
X44017Y346457D01*
X44106Y346008D01*
X43696Y345508D01*
X42358D01*
Y354331D01*
X42281Y354721D01*
X42059Y355052D01*
X41729Y355273D01*
X41339Y355350D01*
X41335D01*
X40956Y355917D01*
X40229Y356403D01*
X39370Y356574D01*
X38512Y356403D01*
X37784Y355917D01*
X37405Y355350D01*
X30512D01*
X30122Y355273D01*
X29791Y355052D01*
X29570Y354721D01*
X29492Y354331D01*
Y339567D01*
X29570Y339177D01*
X29791Y338846D01*
X48674Y319963D01*
X48816Y319430D01*
X48813Y319360D01*
X48798Y319324D01*
X48774Y319268D01*
X48719Y319184D01*
X48422Y318468D01*
X48402Y318369D01*
X48364Y318276D01*
X48213Y317516D01*
Y317415D01*
X48193Y317317D01*
X48193Y316929D01*
X48193Y316929D01*
X48193Y289370D01*
Y288982D01*
X48213Y288884D01*
Y288783D01*
X48364Y288023D01*
X48402Y287930D01*
X48422Y287831D01*
X48597Y287409D01*
X48719Y287115D01*
X48774Y287032D01*
X48813Y286939D01*
X49244Y286294D01*
X49315Y286223D01*
X49371Y286139D01*
X49919Y285591D01*
X50002Y285535D01*
X50073Y285464D01*
X50718Y285033D01*
X50811Y284995D01*
X50894Y284939D01*
X51611Y284642D01*
X51710Y284623D01*
X51802Y284584D01*
X52563Y284433D01*
X52663D01*
X52762Y284413D01*
X53150D01*
X340598Y284414D01*
X340982D01*
X341080Y284433D01*
X341180D01*
X341932Y284582D01*
X342025Y284621D01*
X342123Y284641D01*
X342831Y284934D01*
X342915Y284990D01*
X342969Y285012D01*
X343043Y285009D01*
X343514Y284765D01*
X343546Y284604D01*
X343767Y284273D01*
X344098Y284052D01*
X344488Y283974D01*
X345817D01*
X345915Y283994D01*
X346016D01*
X346109Y284032D01*
X346207Y284052D01*
X346291Y284108D01*
X346383Y284146D01*
X346454Y284217D01*
X346538Y284273D01*
X346547Y284287D01*
X346980Y284577D01*
X347441Y284668D01*
X347902Y284577D01*
X348335Y284287D01*
X348344Y284273D01*
X348425Y284219D01*
Y277120D01*
X285449D01*
Y281709D01*
X279512D01*
Y280565D01*
X275590D01*
X275005Y280448D01*
X274509Y280117D01*
X271512Y277120D01*
X206709D01*
Y281709D01*
X200772D01*
Y280565D01*
X196850D01*
X196265Y280448D01*
X195769Y280117D01*
X192772Y277120D01*
X127969D01*
Y281709D01*
X122031D01*
Y280565D01*
X118110D01*
X117525Y280448D01*
X117029Y280117D01*
X114032Y277120D01*
X49228D01*
Y281709D01*
X43291D01*
Y280565D01*
X40846D01*
X40261Y280448D01*
X39765Y280117D01*
X37468Y277820D01*
X37402Y277834D01*
X36543Y277663D01*
X35816Y277177D01*
X35329Y276449D01*
X35159Y275590D01*
X35235Y275205D01*
X34918Y274819D01*
X29512D01*
Y269472D01*
X30406D01*
X30674Y268972D01*
X30408Y268575D01*
X30237Y267717D01*
X30408Y266858D01*
X30894Y266130D01*
X31622Y265644D01*
X32480Y265473D01*
X33339Y265644D01*
X34066Y266130D01*
X34104Y266187D01*
X44636D01*
X44674Y266130D01*
X45401Y265644D01*
X46260Y265473D01*
X47118Y265644D01*
X47846Y266130D01*
X47884Y266187D01*
X49213D01*
Y264841D01*
X48813Y264242D01*
X48774Y264149D01*
X48719Y264066D01*
X48422Y263350D01*
X48402Y263251D01*
X48364Y263158D01*
X48213Y262398D01*
Y262297D01*
X48193Y262199D01*
X48193Y261811D01*
X48193Y210630D01*
Y210242D01*
X48213Y210144D01*
Y210043D01*
X48364Y209283D01*
X48402Y209190D01*
X48422Y209091D01*
X48597Y208669D01*
X48719Y208375D01*
X48774Y208291D01*
X48813Y208199D01*
X49244Y207554D01*
X49315Y207483D01*
X49371Y207399D01*
X49919Y206851D01*
X50002Y206795D01*
X50073Y206724D01*
X50718Y206293D01*
X50811Y206255D01*
X50894Y206199D01*
X51611Y205902D01*
X51710Y205883D01*
X51802Y205844D01*
X52563Y205693D01*
X52663D01*
X52762Y205673D01*
X53149Y205673D01*
X53150Y205673D01*
X340397Y205673D01*
X340800Y205673D01*
X340898Y205693D01*
X340999D01*
X341789Y205850D01*
X341882Y205889D01*
X341981Y205908D01*
X342725Y206217D01*
X342809Y206272D01*
X342901Y206311D01*
X343025Y206394D01*
X343498Y206108D01*
X343546Y205864D01*
X343767Y205533D01*
X344098Y205312D01*
X344488Y205234D01*
X345817D01*
X345915Y205254D01*
X346016D01*
X346109Y205292D01*
X346207Y205312D01*
X346291Y205368D01*
X346383Y205406D01*
X346454Y205477D01*
X346538Y205533D01*
X346547Y205547D01*
X346980Y205836D01*
X347441Y205928D01*
X347902Y205836D01*
X348292Y205575D01*
X348425Y205376D01*
Y204073D01*
X348400Y204035D01*
X348343Y203896D01*
X348272Y203765D01*
X348267Y203714D01*
X348248Y203667D01*
Y203518D01*
X348233Y203369D01*
X348248Y203320D01*
Y203270D01*
X348305Y203131D01*
X348348Y202988D01*
X348425Y202844D01*
Y198642D01*
X346041D01*
X345650Y198564D01*
X345320Y198343D01*
X344666Y198207D01*
X344581Y198263D01*
X343996Y198380D01*
X286559D01*
X285449Y199490D01*
Y202969D01*
X279512D01*
Y197843D01*
X266427D01*
X266337Y197932D01*
X265841Y198263D01*
X265256Y198380D01*
X207819D01*
X206709Y199490D01*
Y202969D01*
X200772D01*
Y197843D01*
X187687D01*
X187597Y197932D01*
X187101Y198263D01*
X186516Y198380D01*
X129078D01*
X127969Y199490D01*
Y202969D01*
X122031D01*
Y197843D01*
X108946D01*
X108857Y197932D01*
X108361Y198263D01*
X107776Y198380D01*
X50338D01*
X49228Y199490D01*
Y202969D01*
X43291D01*
Y197622D01*
X46770D01*
X47851Y196541D01*
X47660Y196079D01*
X43291D01*
Y190732D01*
X44186D01*
X44453Y190232D01*
X44188Y189835D01*
X44017Y188976D01*
X44188Y188118D01*
X44674Y187390D01*
X45401Y186904D01*
X46260Y186733D01*
X47118Y186904D01*
X47846Y187390D01*
X47884Y187447D01*
X49213D01*
Y186100D01*
X48813Y185502D01*
X48774Y185409D01*
X48719Y185326D01*
X48422Y184609D01*
X48402Y184511D01*
X48364Y184418D01*
X48213Y183658D01*
Y183557D01*
X48193Y183459D01*
X48193Y183071D01*
Y131890D01*
X48193Y131502D01*
X48213Y131404D01*
Y131303D01*
X48364Y130543D01*
X48402Y130450D01*
X48422Y130351D01*
X48597Y129929D01*
X48719Y129635D01*
X48774Y129551D01*
X48813Y129458D01*
X49244Y128814D01*
X49315Y128743D01*
X49371Y128659D01*
X49919Y128111D01*
X50002Y128055D01*
X50073Y127984D01*
X50718Y127553D01*
X50811Y127515D01*
X50894Y127459D01*
X51611Y127162D01*
X51710Y127143D01*
X51802Y127104D01*
X52563Y126953D01*
X52663D01*
X52762Y126933D01*
X53150Y126933D01*
X340476Y126933D01*
X340871D01*
X340969Y126953D01*
X341070D01*
X341845Y127107D01*
X341938Y127145D01*
X342036Y127165D01*
X342766Y127468D01*
X342850Y127523D01*
X342943Y127562D01*
X343017Y127611D01*
X343504Y127335D01*
X343546Y127123D01*
X343767Y126793D01*
X344098Y126572D01*
X344488Y126494D01*
X345817D01*
X345915Y126514D01*
X346016D01*
X346109Y126552D01*
X346207Y126572D01*
X346291Y126627D01*
X346383Y126666D01*
X346454Y126737D01*
X346538Y126793D01*
X346547Y126807D01*
X346980Y127096D01*
X347441Y127188D01*
X347902Y127096D01*
X348335Y126807D01*
X348344Y126793D01*
X348425Y126738D01*
Y119640D01*
X285449D01*
Y124228D01*
X279512D01*
Y123084D01*
X275590D01*
X275005Y122968D01*
X274509Y122637D01*
X271512Y119640D01*
X206709D01*
Y124228D01*
X200772D01*
Y123084D01*
X196850D01*
X196265Y122968D01*
X195769Y122637D01*
X192772Y119640D01*
X127969D01*
Y124228D01*
X122031D01*
Y123084D01*
X118110D01*
X117525Y122968D01*
X117029Y122637D01*
X114032Y119640D01*
X49228D01*
Y124228D01*
X43291D01*
Y123084D01*
X40846D01*
X40261Y122968D01*
X39765Y122637D01*
X37468Y120340D01*
X37402Y120353D01*
X36543Y120183D01*
X35816Y119696D01*
X35329Y118969D01*
X35159Y118110D01*
X35235Y117725D01*
X34918Y117339D01*
X29512D01*
Y111992D01*
X30406D01*
X30674Y111492D01*
X30408Y111095D01*
X30237Y110236D01*
X30408Y109378D01*
X30894Y108650D01*
X31622Y108164D01*
X32480Y107993D01*
X33339Y108164D01*
X34066Y108650D01*
X34104Y108707D01*
X44636D01*
X44674Y108650D01*
X45401Y108164D01*
X46260Y107993D01*
X47118Y108164D01*
X47846Y108650D01*
X47884Y108707D01*
X49213D01*
Y107360D01*
X48813Y106762D01*
X48774Y106669D01*
X48719Y106586D01*
X48422Y105869D01*
X48402Y105771D01*
X48364Y105678D01*
X48213Y104917D01*
Y104817D01*
X48193Y104718D01*
Y104331D01*
Y76772D01*
Y76384D01*
X48213Y76285D01*
Y76185D01*
X48364Y75424D01*
X48402Y75332D01*
X48422Y75233D01*
X48600Y74803D01*
D01*
X48719Y74517D01*
D01*
X48774Y74433D01*
X48813Y74340D01*
X49213Y73742D01*
D01*
X49244Y73695D01*
X49315Y73624D01*
X49371Y73541D01*
X49919Y72993D01*
X50002Y72937D01*
X50073Y72866D01*
X50718Y72435D01*
X50811Y72396D01*
X50894Y72341D01*
X51611Y72044D01*
X51710Y72024D01*
X51802Y71986D01*
X52563Y71835D01*
X52663D01*
X52762Y71815D01*
X53150D01*
X68873Y71815D01*
X69158Y71801D01*
X69743Y71685D01*
X70271Y71466D01*
X70745Y71149D01*
X71149Y70745D01*
X71466Y70271D01*
X71685Y69743D01*
X71801Y69158D01*
X71815Y68872D01*
X71815Y53150D01*
D01*
X71815Y52762D01*
X71835Y52663D01*
Y52563D01*
X71986Y51802D01*
X72024Y51710D01*
X72044Y51611D01*
X72222Y51181D01*
X72341Y50894D01*
X72396Y50811D01*
X72435Y50718D01*
X72866Y50073D01*
X72937Y50002D01*
X72993Y49919D01*
X73541Y49371D01*
X73624Y49315D01*
X73695Y49244D01*
X74340Y48813D01*
X74433Y48774D01*
D01*
X74517Y48719D01*
X75233Y48422D01*
X75332Y48402D01*
X75424Y48364D01*
X76185Y48213D01*
X76285D01*
X76384Y48193D01*
X76772Y48193D01*
X76772Y48193D01*
X316929Y48193D01*
X317317D01*
X317415Y48213D01*
X317516D01*
X318276Y48364D01*
X318369Y48402D01*
X318468Y48422D01*
X319184Y48719D01*
X319250Y48763D01*
X319273Y48775D01*
X319767Y48822D01*
X319988Y48492D01*
X320319Y48271D01*
X320709Y48193D01*
X346427Y48193D01*
X346526Y48213D01*
X346626D01*
X346719Y48251D01*
X346817Y48271D01*
X346901Y48326D01*
X346965Y48353D01*
X347441Y48448D01*
X347917Y48353D01*
X347981Y48326D01*
X348065Y48271D01*
X348163Y48251D01*
X348256Y48213D01*
X348356D01*
X348425Y48199D01*
Y46592D01*
X348400Y46555D01*
X348343Y46416D01*
X348272Y46284D01*
X348267Y46234D01*
X348248Y46187D01*
Y46037D01*
X348233Y45888D01*
X348248Y45840D01*
Y45789D01*
X348305Y45651D01*
X348348Y45508D01*
X348425Y45364D01*
Y41161D01*
X346041D01*
X345650Y41084D01*
X345320Y40863D01*
X344666Y40726D01*
X344581Y40783D01*
X343996Y40900D01*
X286559D01*
X285449Y42009D01*
Y45488D01*
X279512D01*
Y40354D01*
X266435D01*
X266337Y40451D01*
X265841Y40783D01*
X265256Y40900D01*
X207819D01*
X206709Y42009D01*
Y45488D01*
X200772D01*
Y40354D01*
X187694D01*
X187597Y40451D01*
X187101Y40783D01*
X186516Y40900D01*
X129078D01*
X127969Y42009D01*
Y45488D01*
X122031D01*
Y40354D01*
X108954D01*
X108857Y40451D01*
X108361Y40783D01*
X107776Y40900D01*
X50338D01*
X49228Y42009D01*
Y45488D01*
X43291D01*
Y40142D01*
X46770D01*
X47851Y39060D01*
X47660Y38598D01*
X43291D01*
Y33252D01*
X44186D01*
X44453Y32752D01*
X44188Y32355D01*
X44017Y31496D01*
X44188Y30638D01*
X44674Y29910D01*
X45401Y29424D01*
X46260Y29253D01*
X47118Y29424D01*
X47846Y29910D01*
X47884Y29967D01*
X49213D01*
Y25151D01*
X27559D01*
X27493Y25138D01*
X26628Y25311D01*
X25838Y25838D01*
X25311Y26628D01*
X25138Y27493D01*
X25152Y27559D01*
X25151Y365644D01*
X25152Y366142D01*
X25219Y366614D01*
X25311Y367073D01*
X25838Y367863D01*
X26628Y368390D01*
X27493Y368562D01*
X27559Y368549D01*
D02*
G37*
G36*
X367073Y368390D02*
X367863Y367863D01*
X368390Y367073D01*
X368562Y366208D01*
X368549Y366142D01*
X368549Y28058D01*
X368549Y27559D01*
X368482Y27087D01*
X368390Y26628D01*
X367863Y25838D01*
X367073Y25311D01*
X366208Y25138D01*
X366142Y25151D01*
X50232D01*
Y29967D01*
X50155Y30357D01*
X49934Y30688D01*
X49603Y30909D01*
X49213Y30986D01*
X47884D01*
X47785Y30967D01*
X47685D01*
X47592Y30928D01*
X47494Y30909D01*
X47410Y30853D01*
X47317Y30814D01*
X47246Y30743D01*
X47163Y30688D01*
X47153Y30674D01*
X46720Y30384D01*
X46260Y30292D01*
X45799Y30384D01*
X45409Y30645D01*
X45276Y30844D01*
X45276Y32148D01*
X45301Y32186D01*
X45358Y32324D01*
X45429Y32456D01*
X45434Y32506D01*
X45453Y32553D01*
Y32703D01*
X45468Y32852D01*
X45453Y32900D01*
Y32951D01*
X45396Y33089D01*
X45352Y33233D01*
X45276Y33376D01*
Y37579D01*
X47660D01*
X48050Y37657D01*
X48381Y37878D01*
X48406Y37900D01*
X49029Y38013D01*
X49050Y38003D01*
X49119Y37957D01*
X49705Y37841D01*
X107142D01*
X108252Y36731D01*
Y33252D01*
X114189D01*
Y38386D01*
X127266D01*
X127363Y38289D01*
X127860Y37957D01*
X128445Y37841D01*
X185882D01*
X186992Y36731D01*
Y33252D01*
X192929D01*
Y38386D01*
X206006D01*
X206104Y38289D01*
X206600Y37957D01*
X207185Y37841D01*
X264622D01*
X265732Y36731D01*
Y33252D01*
X271669D01*
Y38386D01*
X284747D01*
X284844Y38289D01*
X285340Y37957D01*
X285925Y37841D01*
X343363D01*
X344472Y36731D01*
Y33252D01*
X350410D01*
Y38598D01*
X346931D01*
X345849Y39680D01*
X346041Y40142D01*
X350410D01*
Y45488D01*
X349515D01*
X349248Y45988D01*
X349513Y46386D01*
X349684Y47244D01*
X349595Y47693D01*
X350005Y48193D01*
X351343D01*
Y39370D01*
X351420Y38980D01*
X351641Y38649D01*
X351972Y38428D01*
X352362Y38350D01*
X352366D01*
X352745Y37784D01*
X353472Y37298D01*
X354331Y37127D01*
X355189Y37298D01*
X355917Y37784D01*
X356295Y38350D01*
X363189D01*
X363579Y38428D01*
X363910Y38649D01*
X364131Y38980D01*
X364209Y39370D01*
Y54134D01*
X364131Y54524D01*
X363910Y54855D01*
X344777Y73988D01*
X344691Y74045D01*
X344888Y74340D01*
X344926Y74433D01*
X344982Y74516D01*
X345279Y75233D01*
X345298Y75331D01*
X345337Y75424D01*
X345488Y76185D01*
Y76285D01*
X345508Y76384D01*
X345508Y76771D01*
X345508Y76772D01*
X345508Y104331D01*
X345508Y104718D01*
X345488Y104817D01*
Y104917D01*
X345337Y105678D01*
X345299Y105771D01*
X345279Y105869D01*
X345101Y106299D01*
X344982Y106586D01*
X344926Y106669D01*
X344888Y106762D01*
X344457Y107407D01*
X344386Y107478D01*
X344330Y107561D01*
X343782Y108110D01*
X343698Y108166D01*
X343627Y108237D01*
X342982Y108667D01*
X342890Y108706D01*
X342806Y108762D01*
X342090Y109058D01*
X341991Y109078D01*
X341898Y109116D01*
X341138Y109268D01*
X341037Y109268D01*
X340939Y109287D01*
X340552Y109287D01*
X340551Y109287D01*
X53150Y109287D01*
X52762D01*
X52663Y109268D01*
X52563D01*
X51802Y109116D01*
X51710Y109078D01*
X51611Y109058D01*
X50894Y108762D01*
X50811Y108706D01*
X50718Y108667D01*
X50692Y108650D01*
X50191Y108916D01*
X50155Y109097D01*
X49934Y109428D01*
X49603Y109649D01*
X49213Y109726D01*
X47884D01*
X47785Y109707D01*
X47685D01*
X47592Y109668D01*
X47494Y109649D01*
X47410Y109593D01*
X47317Y109555D01*
X47246Y109484D01*
X47163Y109428D01*
X47153Y109414D01*
X46720Y109124D01*
X46260Y109033D01*
X45799Y109124D01*
X45366Y109414D01*
X45357Y109428D01*
X45276Y109482D01*
Y116581D01*
X108252D01*
Y111992D01*
X114189D01*
Y113136D01*
X118110D01*
X118695Y113252D01*
X119192Y113584D01*
X122189Y116581D01*
X186992D01*
Y111992D01*
X192929D01*
Y113136D01*
X196850D01*
X197436Y113252D01*
X197932Y113584D01*
X200929Y116581D01*
X265732D01*
Y111992D01*
X271669D01*
Y113136D01*
X275590D01*
X276176Y113252D01*
X276672Y113584D01*
X279669Y116581D01*
X344472D01*
Y111992D01*
X350410D01*
Y113136D01*
X352854D01*
X353440Y113252D01*
X353936Y113584D01*
X356232Y115880D01*
X356299Y115867D01*
X357158Y116038D01*
X357885Y116524D01*
X358372Y117252D01*
X358542Y118110D01*
X358466Y118495D01*
X358783Y118882D01*
X364189D01*
Y124228D01*
X363295D01*
X363027Y124728D01*
X363293Y125126D01*
X363464Y125984D01*
X363293Y126843D01*
X362807Y127570D01*
X362079Y128057D01*
X361221Y128227D01*
X360362Y128057D01*
X359634Y127570D01*
X359596Y127514D01*
X349065D01*
X349027Y127570D01*
X348299Y128057D01*
X347441Y128227D01*
X346583Y128057D01*
X345855Y127570D01*
X345817Y127514D01*
X344488D01*
Y128913D01*
X344879Y129498D01*
X344918Y129591D01*
X344973Y129674D01*
X345276Y130405D01*
X345296Y130503D01*
X345334Y130596D01*
X345488Y131371D01*
Y131472D01*
X345508Y131570D01*
Y131965D01*
X345508Y131965D01*
X345508Y183071D01*
X345508Y183459D01*
X345488Y183557D01*
Y183658D01*
X345337Y184418D01*
X345299Y184511D01*
X345279Y184609D01*
X344982Y185326D01*
X344926Y185409D01*
X344888Y185502D01*
X344488Y186100D01*
X344457Y186147D01*
X344386Y186218D01*
X344330Y186302D01*
X343782Y186850D01*
X343698Y186906D01*
X343627Y186977D01*
X342982Y187408D01*
X342890Y187446D01*
X342806Y187502D01*
X342090Y187799D01*
X341991Y187818D01*
X341898Y187856D01*
X341138Y188008D01*
X341037Y188008D01*
X340939Y188027D01*
X340552Y188027D01*
X340551Y188027D01*
X53150Y188027D01*
X52762Y188027D01*
X52663Y188008D01*
X52563D01*
X51802Y187856D01*
X51710Y187818D01*
X51611Y187799D01*
X50894Y187502D01*
X50811Y187446D01*
X50718Y187408D01*
X50692Y187390D01*
X50191Y187656D01*
X50155Y187837D01*
X49933Y188168D01*
X49603Y188389D01*
X49213Y188467D01*
X47884D01*
X47785Y188447D01*
X47685D01*
X47592Y188409D01*
X47494Y188389D01*
X47410Y188333D01*
X47317Y188295D01*
X47246Y188224D01*
X47163Y188168D01*
X47153Y188154D01*
X46720Y187864D01*
X46260Y187773D01*
X45799Y187864D01*
X45409Y188125D01*
X45276Y188325D01*
Y189628D01*
X45301Y189666D01*
X45358Y189804D01*
X45429Y189936D01*
X45434Y189987D01*
X45453Y190033D01*
Y190183D01*
X45468Y190332D01*
X45453Y190381D01*
Y190431D01*
X45396Y190570D01*
X45352Y190713D01*
X45276Y190856D01*
Y195059D01*
X47660D01*
X48050Y195137D01*
X48381Y195358D01*
X48647Y195668D01*
X49030Y195497D01*
X49119Y195437D01*
X49705Y195321D01*
X107142D01*
X108252Y194211D01*
Y190732D01*
X114189D01*
Y195866D01*
X127266D01*
X127363Y195769D01*
X127860Y195437D01*
X128445Y195321D01*
X185882D01*
X186992Y194211D01*
Y190732D01*
X192929D01*
Y195866D01*
X206006D01*
X206104Y195769D01*
X206600Y195437D01*
X207185Y195321D01*
X264622D01*
X265732Y194211D01*
Y190732D01*
X271669D01*
Y195866D01*
X284747D01*
X284844Y195769D01*
X285340Y195437D01*
X285925Y195321D01*
X343363D01*
X344472Y194211D01*
Y190732D01*
X350410D01*
Y196079D01*
X346931D01*
X345849Y197160D01*
X346041Y197622D01*
X350410D01*
Y202969D01*
X349515D01*
X349248Y203468D01*
X349513Y203866D01*
X349684Y204724D01*
X349513Y205583D01*
X349027Y206311D01*
X348299Y206797D01*
X347441Y206967D01*
X346583Y206797D01*
X345855Y206311D01*
X345817Y206254D01*
X344488D01*
Y207708D01*
X344870Y208280D01*
X344909Y208373D01*
X344965Y208456D01*
X345273Y209201D01*
X345292Y209299D01*
X345331Y209392D01*
X345488Y210182D01*
Y210283D01*
X345508Y210381D01*
X345508Y210784D01*
X345508Y210784D01*
X345508Y261735D01*
X345508Y262130D01*
X345488Y262229D01*
Y262330D01*
X345334Y263105D01*
X345296Y263197D01*
X345276Y263296D01*
X344973Y264026D01*
X344918Y264110D01*
X344879Y264202D01*
X344488Y264788D01*
D01*
X344440Y264860D01*
X344369Y264931D01*
X344313Y265014D01*
X343754Y265573D01*
X343671Y265629D01*
X343600Y265700D01*
X342943Y266139D01*
X342850Y266178D01*
X342766Y266233D01*
X342036Y266536D01*
X341938Y266555D01*
X341845Y266594D01*
X341070Y266748D01*
X340969D01*
X340871Y266768D01*
X340476Y266768D01*
X340476Y266768D01*
X53150Y266768D01*
X52762Y266768D01*
X52663Y266748D01*
X52563D01*
X51802Y266597D01*
X51710Y266558D01*
X51611Y266539D01*
X50894Y266242D01*
X50811Y266186D01*
X50718Y266148D01*
X50692Y266130D01*
X50191Y266396D01*
X50155Y266577D01*
X49933Y266908D01*
X49603Y267129D01*
X49213Y267207D01*
X47884D01*
X47785Y267187D01*
X47685D01*
X47592Y267149D01*
X47494Y267129D01*
X47410Y267073D01*
X47317Y267035D01*
X47246Y266964D01*
X47163Y266908D01*
X47153Y266894D01*
X46720Y266605D01*
X46260Y266513D01*
X45799Y266605D01*
X45366Y266894D01*
X45357Y266908D01*
X45276Y266962D01*
Y274061D01*
X108252D01*
Y269472D01*
X114189D01*
Y270616D01*
X118110D01*
X118695Y270733D01*
X119192Y271064D01*
X122189Y274061D01*
X186992D01*
Y269472D01*
X192929D01*
Y270616D01*
X196850D01*
X197436Y270733D01*
X197932Y271064D01*
X200929Y274061D01*
X265732D01*
Y269472D01*
X271669D01*
Y270616D01*
X275590D01*
X276176Y270733D01*
X276672Y271064D01*
X279669Y274061D01*
X344472D01*
Y269472D01*
X350410D01*
Y270616D01*
X352854D01*
X353440Y270733D01*
X353936Y271064D01*
X356232Y273361D01*
X356299Y273347D01*
X357158Y273518D01*
X357885Y274004D01*
X358372Y274732D01*
X358542Y275590D01*
X358466Y275976D01*
X358783Y276362D01*
X364189D01*
Y281709D01*
X363295D01*
X363027Y282209D01*
X363293Y282606D01*
X363464Y283465D01*
X363293Y284323D01*
X362807Y285051D01*
X362079Y285537D01*
X361221Y285708D01*
X360362Y285537D01*
X359634Y285051D01*
X359596Y284994D01*
X349065D01*
X349027Y285051D01*
X348299Y285537D01*
X347441Y285708D01*
X346583Y285537D01*
X345855Y285051D01*
X345817Y284994D01*
X344488D01*
Y286308D01*
X344893Y286914D01*
X344932Y287007D01*
X344987Y287090D01*
X345281Y287798D01*
X345300Y287896D01*
X345339Y287989D01*
X345488Y288741D01*
Y288841D01*
X345508Y288940D01*
Y289322D01*
X345508Y289323D01*
X345508Y316853D01*
X345508Y317249D01*
X345488Y317347D01*
Y317447D01*
X345334Y318223D01*
X345296Y318316D01*
X345276Y318414D01*
X344973Y319144D01*
X344918Y319228D01*
X344879Y319321D01*
X344488Y319906D01*
D01*
X344440Y319978D01*
X344369Y320049D01*
X344313Y320132D01*
X343754Y320691D01*
X343671Y320747D01*
X343600Y320818D01*
X342943Y321257D01*
X342850Y321296D01*
X342766Y321351D01*
X342036Y321654D01*
X341938Y321673D01*
X341845Y321712D01*
X341070Y321866D01*
X340969Y321866D01*
X340871Y321886D01*
X340476Y321886D01*
X340476Y321886D01*
X324828Y321886D01*
X324542Y321900D01*
X323958Y322016D01*
X323430Y322235D01*
X322955Y322552D01*
X322552Y322955D01*
X322235Y323430D01*
X322016Y323958D01*
X321900Y324542D01*
X321886Y324828D01*
X321886Y340475D01*
X321886Y340871D01*
X321866Y340969D01*
Y341070D01*
X321712Y341845D01*
X321673Y341938D01*
X321654Y342036D01*
X321351Y342766D01*
X321296Y342850D01*
D01*
X321257Y342943D01*
X320818Y343600D01*
X320747Y343671D01*
X320691Y343754D01*
X320132Y344313D01*
X320049Y344369D01*
X319978Y344440D01*
X319321Y344879D01*
X319228Y344918D01*
X319144Y344973D01*
X319123Y344982D01*
X318898Y345076D01*
X318414Y345276D01*
X318316Y345296D01*
X318223Y345334D01*
X317447Y345488D01*
X317347D01*
X317249Y345508D01*
X316854Y345508D01*
X316853Y345508D01*
X76772Y345508D01*
X76384Y345508D01*
X76285Y345488D01*
X76185D01*
X75424Y345337D01*
X75332Y345299D01*
X75233Y345279D01*
X74517Y344982D01*
X74450Y344938D01*
X74428Y344926D01*
X73934Y344878D01*
X73713Y345209D01*
X73382Y345430D01*
X72992Y345508D01*
X47274Y345508D01*
X47175Y345488D01*
X47075D01*
X46982Y345450D01*
X46883Y345430D01*
X46800Y345374D01*
X46736Y345348D01*
X46260Y345253D01*
X45784Y345348D01*
X45720Y345374D01*
X45636Y345430D01*
X45538Y345450D01*
X45445Y345488D01*
X45344D01*
X45276Y345502D01*
Y347108D01*
X45301Y347146D01*
X45358Y347285D01*
X45429Y347417D01*
X45434Y347467D01*
X45453Y347514D01*
Y347663D01*
X45468Y347813D01*
X45453Y347861D01*
Y347912D01*
X45396Y348050D01*
X45352Y348193D01*
X45276Y348337D01*
Y352539D01*
X47660D01*
X48050Y352617D01*
X48381Y352838D01*
X48647Y353149D01*
X49030Y352978D01*
X49119Y352918D01*
X49705Y352801D01*
X107142D01*
X108252Y351691D01*
Y348213D01*
X114189D01*
Y353346D01*
X127266D01*
X127363Y353249D01*
X127860Y352918D01*
X128445Y352801D01*
X185882D01*
X186992Y351691D01*
Y348213D01*
X192929D01*
Y353346D01*
X206006D01*
X206104Y353249D01*
X206600Y352918D01*
X207185Y352801D01*
X264622D01*
X265732Y351691D01*
Y348213D01*
X271669D01*
Y353346D01*
X284747D01*
X284844Y353249D01*
X285340Y352918D01*
X285925Y352801D01*
X343363D01*
X344472Y351691D01*
Y348213D01*
X350410D01*
Y353559D01*
X346931D01*
X345849Y354640D01*
X346041Y355102D01*
X350410D01*
Y360449D01*
X349515D01*
X349248Y360949D01*
X349513Y361346D01*
X349684Y362205D01*
X349513Y363063D01*
X349027Y363791D01*
X348299Y364277D01*
X347441Y364448D01*
X346583Y364277D01*
X345855Y363791D01*
X345817Y363734D01*
X344488D01*
Y368549D01*
X366142D01*
X366208Y368562D01*
X367073Y368390D01*
D02*
G37*
G36*
X41339Y344488D02*
X45246D01*
X45401Y344384D01*
X46260Y344214D01*
X47118Y344384D01*
X47274Y344488D01*
X72992Y344488D01*
X73199Y343988D01*
X72993Y343782D01*
X72937Y343698D01*
X72866Y343627D01*
X72435Y342983D01*
X72396Y342890D01*
X72341Y342806D01*
X72044Y342090D01*
X72024Y341991D01*
X71986Y341898D01*
X71835Y341138D01*
Y341037D01*
X71815Y340939D01*
X71815Y340551D01*
X71815Y340551D01*
X71815Y324828D01*
X71801Y324542D01*
X71685Y323958D01*
X71466Y323430D01*
X71149Y322955D01*
X70745Y322552D01*
X70271Y322235D01*
X69743Y322016D01*
X69158Y321900D01*
X68873Y321886D01*
X53150Y321886D01*
X52762Y321886D01*
X52663Y321866D01*
X52563D01*
X51802Y321715D01*
X51710Y321676D01*
X51611Y321657D01*
X50894Y321360D01*
X50811Y321304D01*
X50718Y321266D01*
X50073Y320835D01*
X50006Y320768D01*
X50000Y320762D01*
X49919Y320708D01*
X49895Y320684D01*
X49395Y320684D01*
X30512Y339567D01*
Y354331D01*
X41339D01*
Y344488D01*
D02*
G37*
G36*
X363189Y54134D02*
Y39370D01*
X352362D01*
Y49213D01*
X348455D01*
X348299Y49316D01*
X347441Y49487D01*
X346583Y49316D01*
X346427Y49213D01*
X320709Y49213D01*
X320502Y49713D01*
X320708Y49919D01*
X320764Y50002D01*
X320835Y50073D01*
X321266Y50718D01*
X321304Y50811D01*
X321360Y50894D01*
X321657Y51611D01*
X321676Y51709D01*
X321715Y51802D01*
X321866Y52563D01*
Y52663D01*
X321886Y52762D01*
Y53149D01*
X321886Y53150D01*
X321886Y68873D01*
X321900Y69158D01*
X322016Y69743D01*
X322235Y70271D01*
X322552Y70745D01*
X322955Y71149D01*
X323430Y71466D01*
X323958Y71685D01*
X324542Y71801D01*
X324831Y71815D01*
X340939Y71815D01*
X341037Y71835D01*
X341138D01*
X341898Y71986D01*
X341991Y72024D01*
X342090Y72044D01*
X342806Y72341D01*
X342890Y72396D01*
X342983Y72435D01*
X343627Y72866D01*
X343698Y72937D01*
X343782Y72993D01*
X344056Y73267D01*
X363189Y54134D01*
D02*
G37*
%LPC*%
G36*
X37402Y203030D02*
X36543Y202860D01*
X35816Y202374D01*
X35329Y201646D01*
X35159Y200787D01*
X35329Y199929D01*
X35816Y199201D01*
X35649Y198737D01*
X32991Y196079D01*
X29512D01*
Y190732D01*
X35449D01*
Y194211D01*
X38483Y197245D01*
X38814Y197741D01*
X38931Y198327D01*
Y199163D01*
X38988Y199201D01*
X39474Y199929D01*
X39645Y200787D01*
X39474Y201646D01*
X38988Y202374D01*
X38260Y202860D01*
X37402Y203030D01*
D02*
G37*
G36*
Y45550D02*
X36543Y45379D01*
X35816Y44893D01*
X35329Y44166D01*
X35159Y43307D01*
X35329Y42449D01*
X35816Y41721D01*
X35649Y41256D01*
X32991Y38598D01*
X29512D01*
Y33252D01*
X35449D01*
Y36731D01*
X38483Y39765D01*
X38814Y40261D01*
X38931Y40846D01*
Y41683D01*
X38988Y41721D01*
X39474Y42449D01*
X39645Y43307D01*
X39474Y44166D01*
X38988Y44893D01*
X38260Y45379D01*
X37402Y45550D01*
D02*
G37*
G36*
X364189Y360449D02*
X358252D01*
Y356970D01*
X355218Y353936D01*
X354886Y353440D01*
X354770Y352854D01*
Y352018D01*
X354713Y351980D01*
X354227Y351252D01*
X354056Y350394D01*
X354227Y349535D01*
X354713Y348808D01*
X355441Y348321D01*
X356299Y348151D01*
X357158Y348321D01*
X357885Y348808D01*
X358372Y349535D01*
X358542Y350394D01*
X358372Y351252D01*
X357885Y351980D01*
X358052Y352444D01*
X360710Y355102D01*
X364189D01*
Y360449D01*
D02*
G37*
G36*
Y202969D02*
X358252D01*
Y199490D01*
X355218Y196455D01*
X354886Y195959D01*
X354770Y195374D01*
Y194537D01*
X354713Y194500D01*
X354227Y193772D01*
X354056Y192913D01*
X354227Y192055D01*
X354713Y191327D01*
X355441Y190841D01*
X356299Y190670D01*
X357158Y190841D01*
X357885Y191327D01*
X358372Y192055D01*
X358542Y192913D01*
X358372Y193772D01*
X357885Y194500D01*
X358052Y194964D01*
X360710Y197622D01*
X364189D01*
Y202969D01*
D02*
G37*
%LPD*%
D12*
X338583Y42480D02*
D03*
Y36260D02*
D03*
X291339Y42480D02*
D03*
Y36260D02*
D03*
X212598Y42480D02*
D03*
Y36260D02*
D03*
X133858Y42480D02*
D03*
Y36260D02*
D03*
X55118Y42480D02*
D03*
Y36260D02*
D03*
Y121221D02*
D03*
Y115000D02*
D03*
X133858Y121221D02*
D03*
Y115000D02*
D03*
X212598Y121221D02*
D03*
Y115000D02*
D03*
X291339Y121221D02*
D03*
Y115000D02*
D03*
X338583Y121221D02*
D03*
Y115000D02*
D03*
X55118Y199961D02*
D03*
Y193740D02*
D03*
X133858Y199961D02*
D03*
Y193740D02*
D03*
X212598Y199961D02*
D03*
Y193740D02*
D03*
X291339Y199961D02*
D03*
Y193740D02*
D03*
X338583Y199961D02*
D03*
Y193740D02*
D03*
X55118Y278701D02*
D03*
Y272480D02*
D03*
X133858Y278701D02*
D03*
Y272480D02*
D03*
X212598Y278701D02*
D03*
Y272480D02*
D03*
X291339Y278701D02*
D03*
Y272480D02*
D03*
X338583Y278701D02*
D03*
Y272480D02*
D03*
Y351220D02*
D03*
Y357441D02*
D03*
X291339Y351220D02*
D03*
Y357441D02*
D03*
X212598Y351220D02*
D03*
Y357441D02*
D03*
X133858Y351220D02*
D03*
Y357441D02*
D03*
X55118D02*
D03*
Y351220D02*
D03*
D13*
X347441Y357776D02*
D03*
X361221D02*
D03*
X347441Y350886D02*
D03*
X361221D02*
D03*
X268701Y357776D02*
D03*
X282480D02*
D03*
X268701Y350886D02*
D03*
X282480D02*
D03*
X189961Y357776D02*
D03*
X203740D02*
D03*
X189961Y350886D02*
D03*
X203740D02*
D03*
X111221Y357776D02*
D03*
X125000D02*
D03*
X111221Y350886D02*
D03*
X125000D02*
D03*
X32480Y357776D02*
D03*
X46260D02*
D03*
X32480Y350886D02*
D03*
X46260D02*
D03*
X32480Y279035D02*
D03*
X46260D02*
D03*
X32480Y272146D02*
D03*
X46260D02*
D03*
X111221Y279035D02*
D03*
X125000D02*
D03*
X111221Y272146D02*
D03*
X125000D02*
D03*
X189961Y279035D02*
D03*
X203740D02*
D03*
X189961Y272146D02*
D03*
X203740D02*
D03*
X268701Y279035D02*
D03*
X282480D02*
D03*
X268701Y272146D02*
D03*
X282480D02*
D03*
X347441Y279035D02*
D03*
X361221D02*
D03*
X347441Y272146D02*
D03*
X361221D02*
D03*
X347441Y200295D02*
D03*
X361221D02*
D03*
X347441Y193405D02*
D03*
X361221D02*
D03*
X268701Y200295D02*
D03*
X282480D02*
D03*
X268701Y193405D02*
D03*
X282480D02*
D03*
X189961Y200295D02*
D03*
X203740D02*
D03*
X189961Y193405D02*
D03*
X203740D02*
D03*
X111221Y200295D02*
D03*
X125000D02*
D03*
X111221Y193405D02*
D03*
X125000D02*
D03*
X32480Y200295D02*
D03*
X46260D02*
D03*
X32480Y193405D02*
D03*
X46260D02*
D03*
X32480Y121555D02*
D03*
X46260D02*
D03*
X32480Y114665D02*
D03*
X46260D02*
D03*
X111221Y121555D02*
D03*
X125000D02*
D03*
X111221Y114665D02*
D03*
X125000D02*
D03*
X189961Y121555D02*
D03*
X203740D02*
D03*
X189961Y114665D02*
D03*
X203740D02*
D03*
X268701Y121555D02*
D03*
X282480D02*
D03*
X268701Y114665D02*
D03*
X282480D02*
D03*
X347441Y121555D02*
D03*
X361221D02*
D03*
X347441Y114665D02*
D03*
X361221D02*
D03*
X347441Y42815D02*
D03*
X361221D02*
D03*
X347441Y35925D02*
D03*
X361221D02*
D03*
X268701Y42815D02*
D03*
X282480D02*
D03*
X268701Y35925D02*
D03*
X282480D02*
D03*
X189961Y42815D02*
D03*
X203740D02*
D03*
X189961Y35925D02*
D03*
X203740D02*
D03*
X111221Y42815D02*
D03*
X125000D02*
D03*
X111221Y35925D02*
D03*
X125000D02*
D03*
X32480Y42815D02*
D03*
X46260D02*
D03*
X32480Y35925D02*
D03*
X46260D02*
D03*
D18*
X334646Y334646D02*
X346457D01*
X347441Y335630D01*
Y346457D01*
X27559Y47244D02*
X50925D01*
X47244Y59055D02*
X59055D01*
X46260Y58071D02*
X47244Y59055D01*
X46260Y47244D02*
Y58071D01*
X357776Y42815D02*
X361221D01*
X354331Y39370D02*
X357776Y42815D01*
X366142Y193405D02*
Y272146D01*
X366142Y35925D02*
X366142Y193405D01*
X342776Y31496D02*
X361221D01*
X342776Y110236D02*
X361221D01*
X50925Y267717D02*
X125000D01*
X50925Y110236D02*
X125000D01*
X366142Y272146D02*
Y346457D01*
X361221D02*
X366142D01*
X287146D02*
X342776D01*
X47244Y334646D02*
X59055D01*
X39370Y342520D02*
X47244Y334646D01*
X39370Y342520D02*
Y354331D01*
X35925Y350886D02*
X39370Y354331D01*
X32480Y350886D02*
X35925D01*
X361221Y267717D02*
X366142D01*
X50925D02*
X55118D01*
X46260D02*
X50925D01*
X287146Y188976D02*
X342776D01*
X361221D02*
X366142D01*
X361221Y110236D02*
X366142D01*
X27559Y47244D02*
Y204724D01*
Y125984D02*
X32480D01*
Y42815D02*
Y47244D01*
X361221Y31496D02*
X366142D01*
Y35925D01*
X334646Y59055D02*
X346560D01*
X354331Y51285D01*
Y39370D02*
Y51285D01*
X50925Y125984D02*
X111221D01*
X50925D02*
X53150D01*
X46260D02*
X50925D01*
X50925Y110236D02*
X55118D01*
X46260D02*
X50925D01*
X342776Y31496D02*
X347441D01*
X287146D02*
X342776D01*
X347441Y346457D02*
X361221D01*
X342776D02*
X347441D01*
X46260Y362205D02*
X50925D01*
X32480D02*
X46260D01*
Y283465D02*
X50925D01*
X32480D02*
X46260D01*
X347441Y267717D02*
X361221D01*
X342776D02*
X347441D01*
Y188976D02*
X361221D01*
X342776D02*
X347441D01*
X32480Y125984D02*
X46260D01*
X27559Y283465D02*
Y362205D01*
Y204724D02*
Y283465D01*
X338583Y350650D02*
X342776Y346457D01*
X342776Y362205D02*
X347441D01*
X287146D02*
X342776D01*
X338583Y358012D02*
X342776Y362205D01*
X282480Y346457D02*
X287146D01*
X291339Y350650D01*
X268701Y362205D02*
X287146D01*
X291339Y358012D01*
X208405Y346457D02*
X282480D01*
X203740D02*
X208405D01*
X212598Y350650D01*
X208405Y362205D02*
X268701D01*
X189961D02*
X208405D01*
X212598Y358012D01*
X129665Y346457D02*
X203740D01*
X125000D02*
X129665D01*
X133858Y350650D01*
X129665Y362205D02*
X189961D01*
X111221D02*
X129665D01*
X133858Y358012D01*
X50925Y362205D02*
X111221D01*
X50925D02*
X55118Y358012D01*
X50925Y346457D02*
X125000D01*
X46260D02*
X50925D01*
X55118Y350650D01*
X50925Y267717D02*
X55118Y271909D01*
X50925Y283465D02*
X111221D01*
X50925D02*
X55118Y279272D01*
X125000Y267717D02*
Y272146D01*
X129665Y267717D02*
X203740D01*
X125000D02*
X129665D01*
X133858Y271909D01*
X129665Y283465D02*
X189961D01*
X111221D02*
X129665D01*
X133858Y279272D01*
X208405Y267717D02*
X282480D01*
X203740D02*
X208405D01*
X212598Y271909D01*
X208405Y283465D02*
X268701D01*
X189961D02*
X208405D01*
X212598Y279272D01*
X287146Y283465D02*
X342776D01*
X268701D02*
X287146D01*
X291339Y279272D01*
X287146Y267717D02*
X342776D01*
X282480D02*
X287146D01*
X291339Y271909D01*
X338583D02*
X342776Y267717D01*
X342776Y283465D02*
X347441D01*
X338583Y279272D02*
X342776Y283465D01*
X287146Y204724D02*
X342776D01*
X347441D01*
X338583Y200532D02*
X342776Y204724D01*
X338583Y193169D02*
X342776Y188976D01*
X282480D02*
X287146D01*
X291339Y193169D01*
X268701Y204724D02*
X287146D01*
X291339Y200532D01*
X208405Y204724D02*
X268701D01*
X189961D02*
X208405D01*
X212598Y200532D01*
X203740Y188976D02*
Y193405D01*
X208405Y188976D02*
X282480D01*
X203740D02*
X208405D01*
X212598Y193169D01*
X129665Y188976D02*
X203740D01*
X125000D02*
X129665D01*
X133858Y193169D01*
X129665Y204724D02*
X189961D01*
X111221D02*
X129665D01*
X133858Y200532D01*
X50925Y204724D02*
X111221D01*
X32480D02*
X50925D01*
X55118Y200532D01*
X46260Y188976D02*
Y193405D01*
X50925Y188976D02*
X125000D01*
X46260D02*
X50925D01*
X55118Y193169D01*
X287146Y110236D02*
X342776D01*
X338583Y114429D02*
X342776Y110236D01*
X342776Y125984D02*
X347441D01*
X287146D02*
X342776D01*
X338583Y121791D02*
X342776Y125984D01*
X268701D02*
X287146D01*
X291339Y121791D01*
X282480Y110236D02*
X287146D01*
X291339Y114429D01*
X208405Y125984D02*
X268701D01*
X189961D02*
X208405D01*
X212598Y121791D01*
X208405Y110236D02*
X282480D01*
X203740D02*
X208405D01*
X212598Y114429D01*
X129665Y110236D02*
X203740D01*
X125000D02*
X129665D01*
X133858Y114429D01*
X129665Y125984D02*
X189961D01*
X111221D02*
X129665D01*
X133858Y121791D01*
X50925Y125984D02*
X55118Y121791D01*
X50925Y110236D02*
X55118Y114429D01*
X342776Y47244D02*
X347441D01*
X287146D02*
X342776D01*
X338583Y43051D02*
X342776Y47244D01*
X338583Y35689D02*
X342776Y31496D01*
X268701Y47244D02*
X287146D01*
X291339Y43051D01*
X282480Y31496D02*
X287146D01*
X291339Y35689D01*
X208405Y31496D02*
X282480D01*
X203740D02*
X208405D01*
X212598Y35689D01*
X208405Y47244D02*
X268701D01*
X189961D02*
X208405D01*
X212598Y43051D01*
X129665Y47244D02*
X189961D01*
X111221D02*
X129665D01*
X133858Y43051D01*
X129665Y31496D02*
X203740D01*
X125000D02*
X129665D01*
X133858Y35689D01*
X50925Y31496D02*
X125000D01*
X46260D02*
X50925D01*
X55118Y35689D01*
X50925Y47244D02*
X111221D01*
X50925D02*
X55118Y43051D01*
X27559Y283465D02*
X32480D01*
X27559Y204724D02*
X32480D01*
X27559Y362205D02*
X32480D01*
Y267717D02*
X46260D01*
X347441Y283465D02*
X361221D01*
X32480Y110236D02*
X46260D01*
X347441Y125984D02*
X361221D01*
X347441Y121555D02*
Y125984D01*
X46260Y110236D02*
Y114665D01*
X125000Y110236D02*
Y114665D01*
X37402Y198327D02*
Y200787D01*
X356299Y195374D02*
X361221Y200295D01*
X356299Y192913D02*
Y195374D01*
X37402Y40846D02*
Y43307D01*
X32480Y35925D02*
X37402Y40846D01*
Y118110D02*
X40846Y121555D01*
X46260D01*
X352854Y114665D02*
X356299Y118110D01*
X347441Y114665D02*
X352854D01*
X32480Y193405D02*
X37402Y198327D01*
Y275590D02*
X40846Y279035D01*
X46260D01*
X32480Y200295D02*
Y204724D01*
X268701Y42815D02*
Y47244D01*
X189961Y42815D02*
Y47244D01*
X111221Y42815D02*
Y47244D01*
X347441Y42815D02*
Y47244D01*
X282480Y31496D02*
Y35925D01*
X203740Y31496D02*
Y35925D01*
X125000Y31496D02*
Y35925D01*
X46260Y31496D02*
Y35925D01*
X361221Y31496D02*
Y35925D01*
X282480Y110236D02*
Y114665D01*
X203740Y110236D02*
Y114665D01*
X361221Y110236D02*
Y114665D01*
X268701Y121555D02*
Y125984D01*
X189961Y121555D02*
Y125984D01*
X111221Y121555D02*
Y125984D01*
X32480Y121555D02*
Y125984D01*
X282480Y188976D02*
Y193405D01*
X125000Y188976D02*
Y193405D01*
X361221Y188976D02*
Y193405D01*
X268701Y200295D02*
Y204724D01*
X189961Y200295D02*
Y204724D01*
X111221Y200295D02*
Y204724D01*
X347441Y200295D02*
Y204724D01*
X354331Y279035D02*
X361221D01*
X350886Y275590D02*
X354331Y279035D01*
X279035Y275590D02*
X350886D01*
X352854Y272146D02*
X356299Y275590D01*
X347441Y272146D02*
X352854D01*
X356299Y352854D02*
X361221Y357776D01*
X356299Y350394D02*
Y352854D01*
X361221Y346457D02*
Y350886D01*
Y267717D02*
Y272146D01*
X46260Y267717D02*
Y272146D01*
X203740Y267717D02*
Y272146D01*
X282480Y267717D02*
Y272146D01*
X347441Y279035D02*
Y283465D01*
X268701Y279035D02*
Y283465D01*
X189961Y279035D02*
Y283465D01*
X111221Y279035D02*
Y283465D01*
X32480Y279035D02*
Y283465D01*
X347441Y357776D02*
Y362205D01*
X268701Y357776D02*
Y362205D01*
X189961Y357776D02*
Y362205D01*
X111221Y357776D02*
Y362205D01*
X32480Y357776D02*
Y362205D01*
X46260Y346457D02*
Y350886D01*
X282480Y346457D02*
Y350886D01*
X203740Y346457D02*
Y350886D01*
X125000Y346457D02*
Y350886D01*
X39370Y272146D02*
X42815Y275590D01*
X114665D02*
X118110Y279035D01*
X42815Y275590D02*
X114665D01*
X118110Y272146D02*
X121555Y275590D01*
X193405D02*
X196850Y279035D01*
X121555Y275590D02*
X193405D01*
X196850Y272146D02*
X200295Y275590D01*
X272146D02*
X275590Y279035D01*
X200295Y275590D02*
X272146D01*
X275590Y272146D02*
X279035Y275590D01*
X350886Y118110D02*
X354331Y121555D01*
X279035Y118110D02*
X350886D01*
X275590Y114665D02*
X279035Y118110D01*
X272146D02*
X275590Y121555D01*
X200295Y118110D02*
X272146D01*
X196850Y114665D02*
X200295Y118110D01*
X193405D02*
X196850Y121555D01*
X121555Y118110D02*
X193405D01*
X118110Y114665D02*
X121555Y118110D01*
X42815D02*
X114665D01*
X118110Y121555D01*
X39370Y114665D02*
X42815Y118110D01*
X354331Y121555D02*
X361221D01*
X285925Y39370D02*
X343996D01*
X347441Y35925D01*
X282480Y42815D02*
X285925Y39370D01*
X207185D02*
X265256D01*
X268701Y35925D01*
X203740Y42815D02*
X207185Y39370D01*
X128445D02*
X186516D01*
X189961Y35925D01*
X125000Y42815D02*
X128445Y39370D01*
X49705D02*
X107776D01*
X111221Y35925D01*
X46260Y42815D02*
X49705Y39370D01*
Y196850D02*
X107776D01*
X46260Y200295D02*
X49705Y196850D01*
X107776D02*
X111221Y193405D01*
X128445Y196850D02*
X186516D01*
X125000Y200295D02*
X128445Y196850D01*
X186516D02*
X189961Y193405D01*
X207185Y196850D02*
X265256D01*
X203740Y200295D02*
X207185Y196850D01*
X265256D02*
X268701Y193405D01*
X285925Y196850D02*
X343996D01*
X282480Y200295D02*
X285925Y196850D01*
X343996D02*
X347441Y193405D01*
X285925Y354331D02*
X343996D01*
X347441Y350886D01*
X282480Y357776D02*
X285925Y354331D01*
X207185D02*
X265256D01*
X268701Y350886D01*
X203740Y357776D02*
X207185Y354331D01*
X128445D02*
X186516D01*
X189961Y350886D01*
X125000Y357776D02*
X128445Y354331D01*
X49705D02*
X107776D01*
X111221Y350886D01*
X46260Y357776D02*
X49705Y354331D01*
X32480Y114665D02*
X39370D01*
X118110Y121555D02*
X125000D01*
X111221Y114665D02*
X118110D01*
X196850Y121555D02*
X203740D01*
X189961Y114665D02*
X196850D01*
X275590Y121555D02*
X282480D01*
X268701Y114665D02*
X275590D01*
X32480Y272146D02*
X39370D01*
X118110Y279035D02*
X125000D01*
X111221Y272146D02*
X118110D01*
X268701D02*
X275590D01*
Y279035D02*
X282480D01*
X189961Y272146D02*
X196850D01*
Y279035D02*
X203740D01*
D19*
X334646Y59055D02*
D03*
X59055D02*
D03*
X334646Y334646D02*
D03*
X59055D02*
D03*
D20*
X338583Y358012D02*
D03*
Y350650D02*
D03*
X291339D02*
D03*
Y358012D02*
D03*
X212598Y350650D02*
D03*
Y358012D02*
D03*
X133858Y350650D02*
D03*
Y358012D02*
D03*
X55118D02*
D03*
Y350650D02*
D03*
Y271909D02*
D03*
Y279272D02*
D03*
X133858D02*
D03*
Y271909D02*
D03*
X212598D02*
D03*
Y279272D02*
D03*
X291339D02*
D03*
Y271909D02*
D03*
X338583D02*
D03*
Y279272D02*
D03*
Y193169D02*
D03*
Y200532D02*
D03*
X291339Y193169D02*
D03*
Y200532D02*
D03*
X212598Y193169D02*
D03*
Y200532D02*
D03*
X133858Y193169D02*
D03*
Y200532D02*
D03*
X55118Y193169D02*
D03*
Y200532D02*
D03*
Y114429D02*
D03*
Y121791D02*
D03*
X133858Y114429D02*
D03*
Y121791D02*
D03*
X212598D02*
D03*
Y114429D02*
D03*
X291339Y121791D02*
D03*
Y114429D02*
D03*
X338583D02*
D03*
Y121791D02*
D03*
Y35689D02*
D03*
Y43051D02*
D03*
X291339Y35689D02*
D03*
Y43051D02*
D03*
X212598Y35689D02*
D03*
Y43051D02*
D03*
X133858Y35689D02*
D03*
Y43051D02*
D03*
X55118Y35689D02*
D03*
Y43051D02*
D03*
X39370Y354331D02*
D03*
X46260Y204724D02*
D03*
X354331Y39370D02*
D03*
X46260Y47244D02*
D03*
Y31496D02*
D03*
X347441Y110236D02*
D03*
Y125984D02*
D03*
X46260Y267717D02*
D03*
X347441Y283465D02*
D03*
Y47244D02*
D03*
Y31496D02*
D03*
Y204724D02*
D03*
Y188976D02*
D03*
Y346457D02*
D03*
Y267717D02*
D03*
Y362205D02*
D03*
X46260Y346457D02*
D03*
Y362205D02*
D03*
Y283465D02*
D03*
Y188976D02*
D03*
Y110236D02*
D03*
Y125984D02*
D03*
X32480Y267717D02*
D03*
X361221Y283465D02*
D03*
X32480Y110236D02*
D03*
X361221Y125984D02*
D03*
X37402Y200787D02*
D03*
Y43307D02*
D03*
X356299Y192913D02*
D03*
X37402Y118110D02*
D03*
X356299D02*
D03*
X37402Y275590D02*
D03*
X356299D02*
D03*
Y350394D02*
D03*
M02*
