G04*
G04 #@! TF.GenerationSoftware,Altium Limited,Altium Designer,18.1.7 (191)*
G04*
G04 Layer_Color=0*
%FSLAX25Y25*%
%MOIN*%
G70*
G01*
G75*
%ADD38C,0.00197*%
%ADD39C,0.00197*%
D38*
X-131142Y-73976D02*
Y-46024D01*
X-148858Y-73976D02*
X-131142D01*
X-148858D02*
Y-46024D01*
X-131142D01*
D39*
X-119500Y-95000D02*
Y-85000D01*
X-100500D01*
Y-95000D02*
Y-85000D01*
X-119500Y-95000D02*
X-100500D01*
X-70500D02*
Y-85000D01*
X-89500Y-95000D02*
X-70500D01*
X-89500D02*
Y-85000D01*
X-70500D01*
X-89500D02*
Y-75000D01*
X-70500D01*
Y-85000D02*
Y-75000D01*
X-89500Y-85000D02*
X-70500D01*
X-89500Y-75000D02*
Y-65000D01*
X-70500D01*
Y-75000D02*
Y-65000D01*
X-89500Y-75000D02*
X-70500D01*
X-89500Y-65000D02*
Y-55000D01*
X-70500D01*
Y-65000D02*
Y-55000D01*
X-89500Y-65000D02*
X-70500D01*
X-89500Y-55000D02*
Y-45000D01*
X-70500D01*
Y-55000D02*
Y-45000D01*
X-89500Y-55000D02*
X-70500D01*
X-119500Y-85000D02*
X-100500D01*
Y-75000D01*
X-119500D02*
X-100500D01*
X-119500Y-85000D02*
Y-75000D01*
X-100500D01*
Y-65000D01*
X-119500D02*
X-100500D01*
X-119500Y-75000D02*
Y-65000D01*
X-100500D01*
Y-55000D01*
X-119500D02*
X-100500D01*
X-119500Y-65000D02*
Y-55000D01*
Y-45000D02*
X-100500D01*
X-119500Y-55000D02*
Y-45000D01*
Y-55000D02*
X-100500D01*
Y-45000D01*
M02*
