M48
;Layer_Color=9474304
;FILE_FORMAT=2:5
INCH,TZ
;TYPE=PLATED
T1F00S00C0.01200
T2F00S00C0.02800
T4F00S00C0.04724
T5F00S00C0.04900
T6F00S00C0.11024
%
T01
X-100000Y-90000
Y-80000
Y-70000
Y-60000
Y-50000
X-70000
Y-60000
Y-70000
Y-80000
Y-90000
T02
X-140000Y0
T04
X-30000Y-150000
X-20000
Y-140000
X-30000
X0
X10000
X20000
X30000
X40000
Y-150000
X30000
X20000
X10000
X0
X70000
Y-140000
X80000
X90000
Y-150000
X80000
X100000
Y-140000
X110000
Y-150000
Y-130000
Y-120000
Y-110000
Y-100000
Y-90000
Y-80000
Y-70000
Y-60000
Y-50000
Y-40000
X100000
Y-30000
Y-20000
Y-10000
X110000
Y-20000
Y-30000
X100000Y-50000
Y-60000
Y-70000
Y-80000
Y-90000
Y-100000
Y-110000
Y-120000
Y-130000
Y0
X110000
Y10000
X100000
X90000
Y0
Y-10000
X80000
X70000
Y-20000
X80000
X90000
Y-30000
Y-40000
X80000
X70000
Y-30000
X80000
Y-50000
X90000
Y-60000
X80000
X70000
Y-50000
Y-70000
X80000
X90000
Y-80000
X80000
X70000
Y-90000
X80000
X90000
Y-100000
X80000
X70000
Y-110000
X80000
X90000
Y-120000
X80000
X70000
Y-130000
X80000
X90000
X40000
Y-120000
Y-110000
Y-100000
Y-90000
Y-80000
Y-70000
Y-60000
Y-50000
Y-40000
Y-30000
Y-20000
Y-10000
X30000
X20000
X10000
X0
Y-20000
X10000
X20000
X30000
Y-30000
X20000
X10000
X0
Y-40000
X10000
X20000
X30000
Y-50000
X20000
X10000
X0
Y-60000
X10000
X20000
X30000
Y-70000
X20000
X10000
X0
Y-80000
X10000
X20000
X30000
Y-90000
X20000
X10000
X0
Y-100000
X10000
X20000
X30000
Y-110000
X20000
X10000
X0
Y-120000
X10000
X20000
X30000
Y-130000
X20000
X10000
X0
X-20000
Y-120000
Y-110000
Y-100000
Y-90000
Y-80000
Y-70000
Y-60000
Y-50000
Y-40000
Y-30000
Y-20000
Y-10000
X-30000
Y-20000
Y-30000
Y-40000
Y-50000
Y-60000
Y-70000
Y-80000
Y-90000
Y-100000
Y-110000
Y-120000
Y-130000
Y0
X-20000
Y10000
X-30000
X0
Y0
X10000
X20000
X30000
X40000
Y10000
X30000
X20000
X10000
X70000
Y0
X80000
Y10000
X-70000
Y0
X-80000
X-90000
X-100000
X-110000
Y10000
X-100000
X-90000
X-80000
Y-10000
X-90000
X-100000
X-110000
X-70000
Y20000
X-80000
X-90000
X-100000
X-110000
X-30000
X-20000
Y30000
Y40000
Y50000
Y60000
Y70000
Y80000
Y90000
Y100000
Y110000
Y120000
Y130000
Y140000
X-30000
Y130000
Y120000
Y110000
Y100000
Y90000
Y80000
Y70000
Y60000
Y50000
Y40000
Y30000
X0
Y20000
X10000
X20000
X30000
X40000
Y30000
X30000
X20000
X10000
Y40000
X20000
X30000
X40000
Y50000
X30000
X20000
X10000
X0
Y40000
Y60000
X10000
X20000
X30000
X40000
Y70000
X30000
X20000
X10000
X0
Y80000
X10000
X20000
X30000
X40000
Y90000
X30000
X20000
X10000
X0
Y100000
X10000
X20000
X30000
X40000
Y110000
X30000
X20000
X10000
X0
Y120000
X10000
X20000
X30000
X40000
Y130000
X30000
X20000
X10000
X0
Y140000
X10000
X20000
X30000
X40000
X70000
Y130000
Y120000
Y110000
Y100000
Y90000
Y80000
Y70000
Y60000
Y50000
Y40000
Y30000
Y20000
X80000
X90000
Y30000
X80000
Y40000
X90000
Y50000
X80000
Y60000
X90000
Y70000
X80000
Y80000
X90000
Y90000
X80000
Y100000
X90000
Y110000
X80000
Y120000
X90000
Y130000
X80000
Y140000
X90000
X100000
Y130000
Y120000
Y110000
Y100000
Y90000
Y80000
Y70000
Y60000
Y50000
Y40000
Y30000
Y20000
X110000
Y30000
Y40000
Y50000
Y60000
Y70000
Y80000
Y90000
Y100000
Y110000
Y120000
Y130000
Y140000
T05
X-144000Y-110000
Y-90000
T06
X137795Y-137795
X-137795
Y137795
X137795
M30
