G04*
G04 #@! TF.GenerationSoftware,Altium Limited,Altium Designer,18.1.7 (191)*
G04*
G04 Layer_Color=8388736*
%FSLAX25Y25*%
%MOIN*%
G70*
G01*
G75*
%ADD18R,0.04934X0.07690*%
%ADD19R,0.09265X0.09461*%
%ADD20C,0.10800*%
G04:AMPARAMS|DCode=21|XSize=86.74mil|YSize=86.74mil|CornerRadius=23.68mil|HoleSize=0mil|Usage=FLASHONLY|Rotation=180.000|XOffset=0mil|YOffset=0mil|HoleType=Round|Shape=RoundedRectangle|*
%AMROUNDEDRECTD21*
21,1,0.08674,0.03937,0,0,180.0*
21,1,0.03937,0.08674,0,0,180.0*
1,1,0.04737,-0.01968,0.01968*
1,1,0.04737,0.01968,0.01968*
1,1,0.04737,0.01968,-0.01968*
1,1,0.04737,-0.01968,-0.01968*
%
%ADD21ROUNDEDRECTD21*%
G04:AMPARAMS|DCode=22|XSize=86.74mil|YSize=86.74mil|CornerRadius=23.68mil|HoleSize=0mil|Usage=FLASHONLY|Rotation=90.000|XOffset=0mil|YOffset=0mil|HoleType=Round|Shape=RoundedRectangle|*
%AMROUNDEDRECTD22*
21,1,0.08674,0.03937,0,0,90.0*
21,1,0.03937,0.08674,0,0,90.0*
1,1,0.04737,0.01968,0.01968*
1,1,0.04737,0.01968,-0.01968*
1,1,0.04737,-0.01968,-0.01968*
1,1,0.04737,-0.01968,0.01968*
%
%ADD22ROUNDEDRECTD22*%
%ADD23O,0.12674X0.06737*%
%ADD24O,0.06737X0.12674*%
%ADD25R,0.20485X0.20485*%
D18*
X-115709Y-90000D02*
D03*
X-104291D02*
D03*
X-74291D02*
D03*
X-85709D02*
D03*
Y-80000D02*
D03*
X-74291D02*
D03*
X-85709Y-70000D02*
D03*
X-74291D02*
D03*
X-85709Y-60000D02*
D03*
X-74291D02*
D03*
X-85709Y-50000D02*
D03*
X-74291D02*
D03*
X-104291Y-80000D02*
D03*
X-115709D02*
D03*
X-104291Y-70000D02*
D03*
X-115709D02*
D03*
X-104291Y-60000D02*
D03*
X-115709D02*
D03*
Y-50000D02*
D03*
X-104291D02*
D03*
D19*
X-140000Y-51339D02*
D03*
Y-68661D02*
D03*
D20*
X-144000Y-90000D02*
D03*
Y-110000D02*
D03*
D21*
X70000Y-40000D02*
D03*
X80000D02*
D03*
X90000D02*
D03*
X100000D02*
D03*
X110000D02*
D03*
Y-10000D02*
D03*
X100000D02*
D03*
X90000D02*
D03*
X80000D02*
D03*
X70000D02*
D03*
X40000D02*
D03*
X30000D02*
D03*
X20000D02*
D03*
X10000D02*
D03*
X0D02*
D03*
X110000Y-20000D02*
D03*
X100000D02*
D03*
X90000D02*
D03*
X80000D02*
D03*
X70000D02*
D03*
X40000D02*
D03*
X30000D02*
D03*
X20000D02*
D03*
X10000D02*
D03*
X0D02*
D03*
X110000Y-30000D02*
D03*
X100000D02*
D03*
X90000D02*
D03*
X80000D02*
D03*
X70000D02*
D03*
X40000D02*
D03*
X30000D02*
D03*
X20000D02*
D03*
X10000D02*
D03*
X0D02*
D03*
X40000Y-40000D02*
D03*
X30000D02*
D03*
X20000D02*
D03*
X10000D02*
D03*
X0D02*
D03*
X110000Y-50000D02*
D03*
X100000D02*
D03*
X90000D02*
D03*
X80000D02*
D03*
X70000D02*
D03*
X40000D02*
D03*
X30000D02*
D03*
X20000D02*
D03*
X10000D02*
D03*
X0D02*
D03*
X110000Y-60000D02*
D03*
X100000D02*
D03*
X90000D02*
D03*
X80000D02*
D03*
X70000D02*
D03*
X40000D02*
D03*
X30000D02*
D03*
X20000D02*
D03*
X10000D02*
D03*
X0D02*
D03*
X110000Y-70000D02*
D03*
X100000D02*
D03*
X90000D02*
D03*
X80000D02*
D03*
X70000D02*
D03*
X40000D02*
D03*
X30000D02*
D03*
X20000D02*
D03*
X10000D02*
D03*
X0D02*
D03*
X110000Y-80000D02*
D03*
X100000D02*
D03*
X90000D02*
D03*
X80000D02*
D03*
X70000D02*
D03*
X40000D02*
D03*
X30000D02*
D03*
X20000D02*
D03*
X10000D02*
D03*
X0D02*
D03*
X110000Y-90000D02*
D03*
X100000D02*
D03*
X90000D02*
D03*
X80000D02*
D03*
X70000D02*
D03*
X40000D02*
D03*
X30000D02*
D03*
X20000D02*
D03*
X10000D02*
D03*
X0D02*
D03*
X110000Y-100000D02*
D03*
X100000D02*
D03*
X90000D02*
D03*
X80000D02*
D03*
X70000D02*
D03*
X40000D02*
D03*
X30000D02*
D03*
X20000D02*
D03*
X10000D02*
D03*
X0D02*
D03*
X110000Y-110000D02*
D03*
X100000D02*
D03*
X90000D02*
D03*
X80000D02*
D03*
X70000D02*
D03*
X40000D02*
D03*
X30000D02*
D03*
X20000D02*
D03*
X10000D02*
D03*
X0D02*
D03*
X110000Y-120000D02*
D03*
X100000D02*
D03*
X90000D02*
D03*
X80000D02*
D03*
X70000D02*
D03*
X40000D02*
D03*
X30000D02*
D03*
X20000D02*
D03*
X10000D02*
D03*
X0D02*
D03*
X110000Y-130000D02*
D03*
X100000D02*
D03*
X90000D02*
D03*
X80000D02*
D03*
X70000D02*
D03*
X40000D02*
D03*
X30000D02*
D03*
X20000D02*
D03*
X10000D02*
D03*
X0D02*
D03*
X110000Y-140000D02*
D03*
X100000D02*
D03*
X90000D02*
D03*
X80000D02*
D03*
X70000D02*
D03*
X40000D02*
D03*
X30000D02*
D03*
X20000D02*
D03*
X10000D02*
D03*
X0D02*
D03*
X110000Y-150000D02*
D03*
X100000D02*
D03*
X90000D02*
D03*
X80000D02*
D03*
X70000D02*
D03*
X40000D02*
D03*
X30000D02*
D03*
X20000D02*
D03*
X10000D02*
D03*
X0D02*
D03*
X-110000Y0D02*
D03*
X-100000D02*
D03*
X-90000D02*
D03*
X-80000D02*
D03*
X-70000D02*
D03*
X-110000Y20000D02*
D03*
X-100000D02*
D03*
X-90000D02*
D03*
X-80000D02*
D03*
X-70000D02*
D03*
X-110000Y10000D02*
D03*
X-100000D02*
D03*
X-90000D02*
D03*
X-80000D02*
D03*
X-70000D02*
D03*
X-110000Y-10000D02*
D03*
X-100000D02*
D03*
X-90000D02*
D03*
X-80000D02*
D03*
X-70000D02*
D03*
X110000Y0D02*
D03*
X100000D02*
D03*
X90000D02*
D03*
X80000D02*
D03*
X70000D02*
D03*
X40000D02*
D03*
X30000D02*
D03*
X20000D02*
D03*
X10000D02*
D03*
X0D02*
D03*
X110000Y10000D02*
D03*
X100000D02*
D03*
X90000D02*
D03*
X80000D02*
D03*
X70000D02*
D03*
X40000D02*
D03*
X30000D02*
D03*
X20000D02*
D03*
X10000D02*
D03*
X0D02*
D03*
X110000Y20000D02*
D03*
X100000D02*
D03*
X90000D02*
D03*
X80000D02*
D03*
X70000D02*
D03*
X40000D02*
D03*
X30000D02*
D03*
X20000D02*
D03*
X10000D02*
D03*
X0D02*
D03*
X110000Y30000D02*
D03*
X100000D02*
D03*
X90000D02*
D03*
X80000D02*
D03*
X70000D02*
D03*
X40000D02*
D03*
X30000D02*
D03*
X20000D02*
D03*
X10000D02*
D03*
X0D02*
D03*
X110000Y40000D02*
D03*
X100000D02*
D03*
X90000D02*
D03*
X80000D02*
D03*
X70000D02*
D03*
X40000D02*
D03*
X30000D02*
D03*
X20000D02*
D03*
X10000D02*
D03*
X0D02*
D03*
X110000Y50000D02*
D03*
X100000D02*
D03*
X90000D02*
D03*
X80000D02*
D03*
X70000D02*
D03*
X40000D02*
D03*
X30000D02*
D03*
X20000D02*
D03*
X10000D02*
D03*
X0D02*
D03*
X110000Y60000D02*
D03*
X100000D02*
D03*
X90000D02*
D03*
X80000D02*
D03*
X70000D02*
D03*
X40000D02*
D03*
X30000D02*
D03*
X20000D02*
D03*
X10000D02*
D03*
X0D02*
D03*
X110000Y70000D02*
D03*
X100000D02*
D03*
X90000D02*
D03*
X80000D02*
D03*
X70000D02*
D03*
X40000D02*
D03*
X30000D02*
D03*
X20000D02*
D03*
X10000D02*
D03*
X0D02*
D03*
X110000Y80000D02*
D03*
X100000D02*
D03*
X90000D02*
D03*
X80000D02*
D03*
X70000D02*
D03*
X40000D02*
D03*
X30000D02*
D03*
X20000D02*
D03*
X10000D02*
D03*
X0D02*
D03*
X110000Y90000D02*
D03*
X100000D02*
D03*
X90000D02*
D03*
X80000D02*
D03*
X70000D02*
D03*
X40000D02*
D03*
X30000D02*
D03*
X20000D02*
D03*
X10000D02*
D03*
X0D02*
D03*
X110000Y100000D02*
D03*
X100000D02*
D03*
X90000D02*
D03*
X80000D02*
D03*
X70000D02*
D03*
X40000D02*
D03*
X30000D02*
D03*
X20000D02*
D03*
X10000D02*
D03*
X0D02*
D03*
X110000Y110000D02*
D03*
X100000D02*
D03*
X90000D02*
D03*
X80000D02*
D03*
X70000D02*
D03*
X40000D02*
D03*
X30000D02*
D03*
X20000D02*
D03*
X10000D02*
D03*
X0D02*
D03*
X110000Y120000D02*
D03*
X100000D02*
D03*
X90000D02*
D03*
X80000D02*
D03*
X70000D02*
D03*
X40000D02*
D03*
X30000D02*
D03*
X20000D02*
D03*
X10000D02*
D03*
X0D02*
D03*
X110000Y130000D02*
D03*
X100000D02*
D03*
X90000D02*
D03*
X80000D02*
D03*
X70000D02*
D03*
X40000D02*
D03*
X30000D02*
D03*
X20000D02*
D03*
X10000D02*
D03*
X0D02*
D03*
X70000Y140000D02*
D03*
X80000D02*
D03*
X90000D02*
D03*
X100000D02*
D03*
X110000D02*
D03*
X40000D02*
D03*
X30000D02*
D03*
X20000D02*
D03*
X10000D02*
D03*
X0D02*
D03*
D22*
X-20000Y-50000D02*
D03*
Y-40000D02*
D03*
Y-30000D02*
D03*
Y-20000D02*
D03*
Y-10000D02*
D03*
X-30000Y-50000D02*
D03*
Y-40000D02*
D03*
Y-30000D02*
D03*
Y-20000D02*
D03*
Y-10000D02*
D03*
X-20000Y-100000D02*
D03*
Y-90000D02*
D03*
Y-80000D02*
D03*
Y-70000D02*
D03*
Y-60000D02*
D03*
X-30000Y-100000D02*
D03*
Y-90000D02*
D03*
Y-80000D02*
D03*
Y-70000D02*
D03*
Y-60000D02*
D03*
X-20000Y-150000D02*
D03*
Y-140000D02*
D03*
Y-130000D02*
D03*
Y-120000D02*
D03*
Y-110000D02*
D03*
X-30000Y-150000D02*
D03*
Y-140000D02*
D03*
Y-130000D02*
D03*
Y-120000D02*
D03*
Y-110000D02*
D03*
X-20000Y0D02*
D03*
Y10000D02*
D03*
Y20000D02*
D03*
Y30000D02*
D03*
Y40000D02*
D03*
Y90000D02*
D03*
Y80000D02*
D03*
Y70000D02*
D03*
Y60000D02*
D03*
Y50000D02*
D03*
Y140000D02*
D03*
Y130000D02*
D03*
Y120000D02*
D03*
Y110000D02*
D03*
Y100000D02*
D03*
X-30000Y0D02*
D03*
Y10000D02*
D03*
Y20000D02*
D03*
Y30000D02*
D03*
Y40000D02*
D03*
Y50000D02*
D03*
Y60000D02*
D03*
Y70000D02*
D03*
Y80000D02*
D03*
Y90000D02*
D03*
Y100000D02*
D03*
Y110000D02*
D03*
Y120000D02*
D03*
Y130000D02*
D03*
Y140000D02*
D03*
D23*
X-90000Y-110000D02*
D03*
Y-133622D02*
D03*
D24*
X-71496Y-121811D02*
D03*
D25*
X137795Y-137795D02*
D03*
X-137795D02*
D03*
X137795Y137795D02*
D03*
X-137795D02*
D03*
M02*
