M48
;Layer_Color=9474304
;FILE_FORMAT=2:5
INCH,TZ
;TYPE=PLATED
T1F00S00C0.01200
T2F00S00C0.11024
;TYPE=NON_PLATED
%
T01
X46260Y31496
X55118Y35689
Y43051
X46260Y47244
X37402Y43307
X133858Y43051
Y35689
X212598
Y43051
X291339
Y35689
X338583
Y43051
X347441Y47244
X354331Y39370
X347441Y31496
Y110236
X338583Y114429
Y121791
X347441Y125984
X361221
X356299Y118110
Y192913
X347441Y188976
X338583Y193169
Y200532
X347441Y204724
X291339Y200532
Y193169
Y121791
Y114429
X212598
Y121791
Y193169
Y200532
X133858
Y193169
Y121791
Y114429
X55118
Y121791
X46260Y125984
Y110236
X32480
X37402Y118110
X46260Y188976
X55118Y193169
Y200532
X46260Y204724
X37402Y200787
X32480Y267717
X37402Y275590
X46260Y267717
X55118Y271909
Y279272
X46260Y283465
Y346457
X55118Y350650
Y358012
X46260Y362205
X39370Y354331
X133858Y350650
Y358012
Y279272
Y271909
X212598
Y279272
Y350650
Y358012
X291339
Y350650
Y279272
Y271909
X338583
Y279272
X347441Y283465
X361221
X356299Y275590
X347441Y267717
Y346457
X356299Y350394
X338583Y350650
Y358012
X347441Y362205
T02
X334646Y59055
X59055
Y334646
X334646
M30
