G04*
G04 #@! TF.GenerationSoftware,Altium Limited,Altium Designer,18.1.7 (191)*
G04*
G04 Layer_Color=0*
%FSLAX25Y25*%
%MOIN*%
G70*
G01*
G75*
%ADD22C,0.00197*%
%ADD23C,0.00197*%
D22*
X335583Y33370D02*
X341583D01*
X335583D02*
Y45370D01*
X341583D01*
Y33370D02*
Y45370D01*
X288339Y33370D02*
X294339D01*
X288339D02*
Y45370D01*
X294339D01*
Y33370D02*
Y45370D01*
X209598Y33370D02*
X215598D01*
X209598D02*
Y45370D01*
X215598D01*
Y33370D02*
Y45370D01*
X130858Y33370D02*
X136858D01*
X130858D02*
Y45370D01*
X136858D01*
Y33370D02*
Y45370D01*
X52118Y33370D02*
X58118D01*
X52118D02*
Y45370D01*
X58118D01*
Y33370D02*
Y45370D01*
X52118Y112110D02*
X58118D01*
X52118D02*
Y124110D01*
X58118D01*
Y112110D02*
Y124110D01*
X130858Y112110D02*
X136858D01*
X130858D02*
Y124110D01*
X136858D01*
Y112110D02*
Y124110D01*
X209598Y112110D02*
X215598D01*
X209598D02*
Y124110D01*
X215598D01*
Y112110D02*
Y124110D01*
X288339Y112110D02*
X294339D01*
X288339D02*
Y124110D01*
X294339D01*
Y112110D02*
Y124110D01*
X335583Y112110D02*
X341583D01*
X335583D02*
Y124110D01*
X341583D01*
Y112110D02*
Y124110D01*
X52118Y190850D02*
X58118D01*
X52118D02*
Y202850D01*
X58118D01*
Y190850D02*
Y202850D01*
X130858Y190850D02*
X136858D01*
X130858D02*
Y202850D01*
X136858D01*
Y190850D02*
Y202850D01*
X209598Y190850D02*
X215598D01*
X209598D02*
Y202850D01*
X215598D01*
Y190850D02*
Y202850D01*
X288339Y190850D02*
X294339D01*
X288339D02*
Y202850D01*
X294339D01*
Y190850D02*
Y202850D01*
X335583Y190850D02*
X341583D01*
X335583D02*
Y202850D01*
X341583D01*
Y190850D02*
Y202850D01*
X52118Y269590D02*
X58118D01*
X52118D02*
Y281591D01*
X58118D01*
Y269590D02*
Y281591D01*
X130858Y269590D02*
X136858D01*
X130858D02*
Y281591D01*
X136858D01*
Y269590D02*
Y281591D01*
X209598Y269590D02*
X215598D01*
X209598D02*
Y281591D01*
X215598D01*
Y269590D02*
Y281591D01*
X288339Y269590D02*
X294339D01*
X288339D02*
Y281591D01*
X294339D01*
Y269590D02*
Y281591D01*
X335583Y269590D02*
X341583D01*
X335583D02*
Y281591D01*
X341583D01*
Y269590D02*
Y281591D01*
X335583Y360331D02*
X341583D01*
Y348331D02*
Y360331D01*
X335583Y348331D02*
X341583D01*
X335583D02*
Y360331D01*
X288339D02*
X294339D01*
Y348331D02*
Y360331D01*
X288339Y348331D02*
X294339D01*
X288339D02*
Y360331D01*
X209598D02*
X215598D01*
Y348331D02*
Y360331D01*
X209598Y348331D02*
X215598D01*
X209598D02*
Y360331D01*
X130858D02*
X136858D01*
Y348331D02*
Y360331D01*
X130858Y348331D02*
X136858D01*
X130858D02*
Y360331D01*
X52118Y348331D02*
X58118D01*
X52118D02*
Y360331D01*
X58118D01*
Y348331D02*
Y360331D01*
D23*
X344488Y362205D02*
X364173D01*
Y346457D02*
Y362205D01*
X344488Y346457D02*
X364173D01*
X344488D02*
Y362205D01*
X265748D02*
X285433D01*
Y346457D02*
Y362205D01*
X265748Y346457D02*
X285433D01*
X265748D02*
Y362205D01*
X187008D02*
X206693D01*
Y346457D02*
Y362205D01*
X187008Y346457D02*
X206693D01*
X187008D02*
Y362205D01*
X108268D02*
X127953D01*
Y346457D02*
Y362205D01*
X108268Y346457D02*
X127953D01*
X108268D02*
Y362205D01*
X29528D02*
X49213D01*
Y346457D02*
Y362205D01*
X29528Y346457D02*
X49213D01*
X29528D02*
Y362205D01*
Y283465D02*
X49213D01*
Y267717D02*
Y283465D01*
X29528Y267717D02*
X49213D01*
X29528D02*
Y283465D01*
X108268D02*
X127953D01*
Y267717D02*
Y283465D01*
X108268Y267717D02*
X127953D01*
X108268D02*
Y283465D01*
X187008D02*
X206693D01*
Y267717D02*
Y283465D01*
X187008Y267717D02*
X206693D01*
X187008D02*
Y283465D01*
X265748D02*
X285433D01*
Y267717D02*
Y283465D01*
X265748Y267717D02*
X285433D01*
X265748D02*
Y283465D01*
X344488D02*
X364173D01*
Y267717D02*
Y283465D01*
X344488Y267717D02*
X364173D01*
X344488D02*
Y283465D01*
Y204724D02*
X364173D01*
Y188976D02*
Y204724D01*
X344488Y188976D02*
X364173D01*
X344488D02*
Y204724D01*
X265748D02*
X285433D01*
Y188976D02*
Y204724D01*
X265748Y188976D02*
X285433D01*
X265748D02*
Y204724D01*
X187008D02*
X206693D01*
Y188976D02*
Y204724D01*
X187008Y188976D02*
X206693D01*
X187008D02*
Y204724D01*
X108268D02*
X127953D01*
Y188976D02*
Y204724D01*
X108268Y188976D02*
X127953D01*
X108268D02*
Y204724D01*
X29528D02*
X49213D01*
Y188976D02*
Y204724D01*
X29528Y188976D02*
X49213D01*
X29528D02*
Y204724D01*
Y125984D02*
X49213D01*
Y110236D02*
Y125984D01*
X29528Y110236D02*
X49213D01*
X29528D02*
Y125984D01*
X108268D02*
X127953D01*
Y110236D02*
Y125984D01*
X108268Y110236D02*
X127953D01*
X108268D02*
Y125984D01*
X187008D02*
X206693D01*
Y110236D02*
Y125984D01*
X187008Y110236D02*
X206693D01*
X187008D02*
Y125984D01*
X265748D02*
X285433D01*
Y110236D02*
Y125984D01*
X265748Y110236D02*
X285433D01*
X265748D02*
Y125984D01*
X344488D02*
X364173D01*
Y110236D02*
Y125984D01*
X344488Y110236D02*
X364173D01*
X344488D02*
Y125984D01*
Y47244D02*
X364173D01*
Y31496D02*
Y47244D01*
X344488Y31496D02*
X364173D01*
X344488D02*
Y47244D01*
X265748D02*
X285433D01*
Y31496D02*
Y47244D01*
X265748Y31496D02*
X285433D01*
X265748D02*
Y47244D01*
X187008D02*
X206693D01*
Y31496D02*
Y47244D01*
X187008Y31496D02*
X206693D01*
X187008D02*
Y47244D01*
X108268D02*
X127953D01*
Y31496D02*
Y47244D01*
X108268Y31496D02*
X127953D01*
X108268D02*
Y47244D01*
X29528D02*
X49213D01*
Y31496D02*
Y47244D01*
X29528Y31496D02*
X49213D01*
X29528D02*
Y47244D01*
M02*
