G04*
G04 #@! TF.GenerationSoftware,Altium Limited,Altium Designer,18.1.7 (191)*
G04*
G04 Layer_Color=8421504*
%FSLAX25Y25*%
%MOIN*%
G70*
G01*
G75*
%ADD12R,0.04016X0.03701*%
%ADD13R,0.03937X0.03347*%
D12*
X338583Y42480D02*
D03*
Y36260D02*
D03*
X291339Y42480D02*
D03*
Y36260D02*
D03*
X212598Y42480D02*
D03*
Y36260D02*
D03*
X133858Y42480D02*
D03*
Y36260D02*
D03*
X55118Y42480D02*
D03*
Y36260D02*
D03*
Y121221D02*
D03*
Y115000D02*
D03*
X133858Y121221D02*
D03*
Y115000D02*
D03*
X212598Y121221D02*
D03*
Y115000D02*
D03*
X291339Y121221D02*
D03*
Y115000D02*
D03*
X338583Y121221D02*
D03*
Y115000D02*
D03*
X55118Y199961D02*
D03*
Y193740D02*
D03*
X133858Y199961D02*
D03*
Y193740D02*
D03*
X212598Y199961D02*
D03*
Y193740D02*
D03*
X291339Y199961D02*
D03*
Y193740D02*
D03*
X338583Y199961D02*
D03*
Y193740D02*
D03*
X55118Y278701D02*
D03*
Y272480D02*
D03*
X133858Y278701D02*
D03*
Y272480D02*
D03*
X212598Y278701D02*
D03*
Y272480D02*
D03*
X291339Y278701D02*
D03*
Y272480D02*
D03*
X338583Y278701D02*
D03*
Y272480D02*
D03*
Y351220D02*
D03*
Y357441D02*
D03*
X291339Y351220D02*
D03*
Y357441D02*
D03*
X212598Y351220D02*
D03*
Y357441D02*
D03*
X133858Y351220D02*
D03*
Y357441D02*
D03*
X55118D02*
D03*
Y351220D02*
D03*
D13*
X347441Y357776D02*
D03*
X361221D02*
D03*
X347441Y350886D02*
D03*
X361221D02*
D03*
X268701Y357776D02*
D03*
X282480D02*
D03*
X268701Y350886D02*
D03*
X282480D02*
D03*
X189961Y357776D02*
D03*
X203740D02*
D03*
X189961Y350886D02*
D03*
X203740D02*
D03*
X111221Y357776D02*
D03*
X125000D02*
D03*
X111221Y350886D02*
D03*
X125000D02*
D03*
X32480Y357776D02*
D03*
X46260D02*
D03*
X32480Y350886D02*
D03*
X46260D02*
D03*
X32480Y279035D02*
D03*
X46260D02*
D03*
X32480Y272146D02*
D03*
X46260D02*
D03*
X111221Y279035D02*
D03*
X125000D02*
D03*
X111221Y272146D02*
D03*
X125000D02*
D03*
X189961Y279035D02*
D03*
X203740D02*
D03*
X189961Y272146D02*
D03*
X203740D02*
D03*
X268701Y279035D02*
D03*
X282480D02*
D03*
X268701Y272146D02*
D03*
X282480D02*
D03*
X347441Y279035D02*
D03*
X361221D02*
D03*
X347441Y272146D02*
D03*
X361221D02*
D03*
X347441Y200295D02*
D03*
X361221D02*
D03*
X347441Y193405D02*
D03*
X361221D02*
D03*
X268701Y200295D02*
D03*
X282480D02*
D03*
X268701Y193405D02*
D03*
X282480D02*
D03*
X189961Y200295D02*
D03*
X203740D02*
D03*
X189961Y193405D02*
D03*
X203740D02*
D03*
X111221Y200295D02*
D03*
X125000D02*
D03*
X111221Y193405D02*
D03*
X125000D02*
D03*
X32480Y200295D02*
D03*
X46260D02*
D03*
X32480Y193405D02*
D03*
X46260D02*
D03*
X32480Y121555D02*
D03*
X46260D02*
D03*
X32480Y114665D02*
D03*
X46260D02*
D03*
X111221Y121555D02*
D03*
X125000D02*
D03*
X111221Y114665D02*
D03*
X125000D02*
D03*
X189961Y121555D02*
D03*
X203740D02*
D03*
X189961Y114665D02*
D03*
X203740D02*
D03*
X268701Y121555D02*
D03*
X282480D02*
D03*
X268701Y114665D02*
D03*
X282480D02*
D03*
X347441Y121555D02*
D03*
X361221D02*
D03*
X347441Y114665D02*
D03*
X361221D02*
D03*
X347441Y42815D02*
D03*
X361221D02*
D03*
X347441Y35925D02*
D03*
X361221D02*
D03*
X268701Y42815D02*
D03*
X282480D02*
D03*
X268701Y35925D02*
D03*
X282480D02*
D03*
X189961Y42815D02*
D03*
X203740D02*
D03*
X189961Y35925D02*
D03*
X203740D02*
D03*
X111221Y42815D02*
D03*
X125000D02*
D03*
X111221Y35925D02*
D03*
X125000D02*
D03*
X32480Y42815D02*
D03*
X46260D02*
D03*
X32480Y35925D02*
D03*
X46260D02*
D03*
M02*
